<?xml version="1.0" encoding="UTF-8"?> <svg xmlns="http://www.w3.org/2000/svg" id="Layer_2" viewBox="0 0 543.43 119.61"><defs><style>.cls-1{fill:#030723;}</style></defs><g id="Layer_1-2"><g><g><path class="cls-1" d="M268.19,.16l-51.49,28.61c-.4,.22-.65,.65-.65,1.11v59.86c0,.46,.26,.89,.66,1.11l51.48,28.6c.38,.21,.85,.21,1.24,0l51.48-28.61c.4-.22,.65-.65,.65-1.11V29.88c0-.46-.25-.89-.65-1.11L269.42,.16c-.38-.21-.85-.21-1.24,0Zm-17.03,73.11l-2.8-4.8c-.18-.3-.57-.41-.87-.23l-24.62,14.3V33.89c0-.46,.25-.89,.65-1.11l41.87-23.24v27.6c0,.35,.28,.64,.64,.64h5.55c.35,0,.64-.28,.64-.64l.02-27.61,41.84,23.25c.4,.22,.65,.65,.65,1.11l-.02,48.66-24.59-14.3c-.3-.18-.69-.07-.87,.23l-2.79,4.8c-.18,.3-.07,.69,.23,.87l24.51,14.27-41.78,23.23c-.38,.21-.85,.21-1.24,0l-41.78-23.25,24.52-14.25c.3-.18,.41-.57,.23-.87Z"></path><path class="cls-1" d="M271.58,102.14c.35,0,.64-.28,.64-.64V62.5c0-.45,.24-.87,.63-1.1l33.73-19.61c.3-.18,.41-.57,.23-.87l-2.79-4.8c-.18-.3-.57-.41-.87-.23l-33.71,19.6c-.39,.23-.88,.23-1.28,0l-33.71-19.6c-.3-.18-.69-.07-.87,.23l-2.79,4.8c-.18,.3-.07,.69,.23,.87l33.74,19.62c.39,.23,.63,.65,.63,1.1v39c0,.35,.28,.64,.64,.64h5.55Z"></path></g><g><path class="cls-1" d="M0,82.88V30.82H21.94c3.26,0,6.08,.58,8.46,1.75,2.38,1.16,4.19,2.79,5.45,4.89s1.89,4.61,1.89,7.55c0,2.47-.64,4.74-1.92,6.81-1.28,2.07-3.27,3.74-5.97,5v-3.56c2.38,.93,4.31,2.11,5.8,3.53,1.49,1.42,2.57,3.02,3.25,4.79,.67,1.77,1.01,3.63,1.01,5.59,0,4.89-1.6,8.73-4.79,11.53-3.19,2.79-7.58,4.19-13.17,4.19H0Zm8.25-31.3h13.83c2.24,0,4.03-.64,5.38-1.92,1.35-1.28,2.03-2.95,2.03-5s-.68-3.73-2.03-4.89c-1.35-1.16-3.14-1.75-5.38-1.75H8.25v13.56Zm0,23.97h14.32c2.75,0,4.95-.76,6.6-2.27,1.65-1.51,2.48-3.53,2.48-6.04s-.83-4.54-2.48-6.08c-1.65-1.54-3.86-2.31-6.6-2.31H8.25v16.7Z"></path><path class="cls-1" d="M65.75,83.72c-3.68,0-7.01-.86-9.99-2.59-2.98-1.72-5.36-4.08-7.13-7.06-1.77-2.98-2.65-6.36-2.65-10.13s.87-7.21,2.62-10.17c1.75-2.96,4.11-5.29,7.09-6.99,2.98-1.7,6.33-2.55,10.06-2.55s7.07,.85,10.03,2.55c2.96,1.7,5.31,4.03,7.06,6.99,1.75,2.96,2.62,6.35,2.62,10.17s-.88,7.22-2.66,10.2c-1.77,2.98-4.15,5.32-7.13,7.02-2.98,1.7-6.29,2.55-9.92,2.55Zm0-7.34c2.19,0,4.15-.53,5.87-1.61,1.72-1.07,3.08-2.55,4.09-4.44,1-1.89,1.5-4.02,1.5-6.39s-.5-4.48-1.5-6.32c-1-1.84-2.37-3.31-4.09-4.4-1.72-1.09-3.68-1.64-5.87-1.64s-4.16,.55-5.91,1.64c-1.75,1.09-3.12,2.56-4.12,4.4-1,1.84-1.5,3.95-1.5,6.32s.5,4.51,1.5,6.39c1,1.89,2.38,3.37,4.12,4.44,1.75,1.07,3.71,1.61,5.91,1.61Z"></path><path class="cls-1" d="M111.38,83.72c-3.68,0-7.01-.86-9.99-2.59-2.98-1.72-5.36-4.08-7.13-7.06-1.77-2.98-2.66-6.36-2.66-10.13s.87-7.21,2.62-10.17c1.75-2.96,4.11-5.29,7.09-6.99,2.98-1.7,6.33-2.55,10.06-2.55s7.07,.85,10.03,2.55c2.96,1.7,5.31,4.03,7.06,6.99,1.75,2.96,2.62,6.35,2.62,10.17s-.89,7.22-2.66,10.2c-1.77,2.98-4.15,5.32-7.13,7.02-2.98,1.7-6.29,2.55-9.92,2.55Zm0-7.34c2.19,0,4.15-.53,5.87-1.61,1.72-1.07,3.09-2.55,4.09-4.44,1-1.89,1.5-4.02,1.5-6.39s-.5-4.48-1.5-6.32c-1-1.84-2.37-3.31-4.09-4.4-1.72-1.09-3.68-1.64-5.87-1.64s-4.16,.55-5.9,1.64c-1.75,1.09-3.12,2.56-4.12,4.4-1,1.84-1.5,3.95-1.5,6.32s.5,4.51,1.5,6.39,2.38,3.37,4.12,4.44c1.75,1.07,3.71,1.61,5.9,1.61Z"></path><path class="cls-1" d="M152.75,83.72c-3.91,0-7.31-.95-10.2-2.86-2.89-1.91-4.92-4.47-6.08-7.69l6.08-2.87c1.02,2.14,2.43,3.84,4.23,5.1s3.79,1.89,5.97,1.89c1.86,0,3.38-.42,4.54-1.26,1.16-.84,1.75-1.98,1.75-3.42,0-.88-.26-1.62-.77-2.2-.51-.58-1.15-1.06-1.92-1.43-.77-.37-1.55-.67-2.34-.91l-5.94-1.68c-3.31-.93-5.76-2.33-7.37-4.19-1.61-1.86-2.41-4.05-2.41-6.57,0-2.28,.58-4.29,1.75-6.01,1.16-1.72,2.77-3.05,4.82-3.98,2.05-.93,4.38-1.4,6.99-1.4,3.45,0,6.52,.85,9.22,2.55,2.7,1.7,4.61,4.06,5.73,7.09l-6.15,2.94c-.75-1.86-1.91-3.33-3.49-4.4-1.58-1.07-3.38-1.61-5.38-1.61-1.72,0-3.1,.41-4.12,1.22-1.03,.82-1.54,1.88-1.54,3.18,0,.89,.23,1.62,.7,2.2,.46,.58,1.07,1.05,1.82,1.4,.74,.35,1.51,.64,2.31,.87l6.15,1.82c3.12,.89,5.52,2.27,7.2,4.16,1.68,1.89,2.52,4.13,2.52,6.74,0,2.24-.59,4.2-1.78,5.9-1.19,1.7-2.83,3.03-4.93,3.98-2.1,.95-4.54,1.43-7.34,1.43Z"></path><path class="cls-1" d="M190.9,83.3c-3.96,0-7.03-1.12-9.22-3.35-2.19-2.24-3.28-5.38-3.28-9.43v-18.24h-6.71v-7.2h1.05c1.77,0,3.15-.51,4.16-1.54,1-1.02,1.5-2.42,1.5-4.19v-2.94h7.9v8.66h8.6v7.2h-8.6v17.89c0,1.3,.21,2.41,.63,3.32,.42,.91,1.09,1.61,2.03,2.1,.93,.49,2.14,.73,3.63,.73,.37,0,.79-.02,1.26-.07,.46-.05,.91-.09,1.33-.14v6.78c-.65,.09-1.38,.19-2.17,.28-.79,.09-1.49,.14-2.1,.14Z"></path></g><g><path class="cls-1" d="M356.93,83.72c-3.91,0-7.31-.95-10.2-2.86-2.89-1.91-4.92-4.47-6.08-7.69l6.08-2.87c1.02,2.14,2.43,3.84,4.23,5.1s3.79,1.89,5.97,1.89c1.86,0,3.38-.42,4.54-1.26,1.16-.84,1.75-1.98,1.75-3.42,0-.88-.26-1.62-.77-2.2-.51-.58-1.15-1.06-1.92-1.43-.77-.37-1.55-.67-2.34-.91l-5.94-1.68c-3.31-.93-5.76-2.33-7.37-4.19-1.61-1.86-2.41-4.05-2.41-6.57,0-2.28,.58-4.29,1.75-6.01,1.16-1.72,2.77-3.05,4.82-3.98,2.05-.93,4.38-1.4,6.99-1.4,3.45,0,6.52,.85,9.22,2.55,2.7,1.7,4.61,4.06,5.73,7.09l-6.15,2.94c-.75-1.86-1.91-3.33-3.49-4.4-1.58-1.07-3.38-1.61-5.38-1.61-1.72,0-3.1,.41-4.12,1.22-1.03,.82-1.54,1.88-1.54,3.18,0,.89,.23,1.62,.7,2.2,.46,.58,1.07,1.05,1.82,1.4,.74,.35,1.51,.64,2.31,.87l6.15,1.82c3.12,.89,5.52,2.27,7.2,4.16,1.68,1.89,2.52,4.13,2.52,6.74,0,2.24-.59,4.2-1.78,5.9-1.19,1.7-2.83,3.03-4.93,3.98-2.1,.95-4.54,1.43-7.34,1.43Z"></path><path class="cls-1" d="M378.73,96.85V45.08h7.55v7.83l-.91-1.82c1.4-2.14,3.26-3.82,5.59-5.03,2.33-1.21,4.98-1.82,7.96-1.82,3.59,0,6.81,.86,9.68,2.59,2.87,1.72,5.12,4.08,6.78,7.06,1.65,2.98,2.48,6.34,2.48,10.06s-.83,7.08-2.48,10.06c-1.65,2.98-3.9,5.35-6.74,7.09-2.84,1.75-6.08,2.62-9.71,2.62-2.93,0-5.6-.61-8-1.82-2.4-1.21-4.25-2.96-5.56-5.24l1.26-1.47v21.66h-7.9Zm19.36-20.47c2.24,0,4.23-.53,5.97-1.61,1.75-1.07,3.11-2.55,4.09-4.44,.98-1.89,1.47-4.02,1.47-6.39s-.49-4.48-1.47-6.32c-.98-1.84-2.34-3.31-4.09-4.4-1.75-1.09-3.74-1.64-5.97-1.64s-4.09,.54-5.83,1.61c-1.75,1.07-3.12,2.55-4.12,4.44-1,1.89-1.5,4-1.5,6.32s.5,4.51,1.5,6.39c1,1.89,2.38,3.37,4.12,4.44,1.75,1.07,3.69,1.61,5.83,1.61Z"></path><path class="cls-1" d="M436.87,83.72c-2.56,0-4.81-.44-6.74-1.33-1.93-.88-3.44-2.14-4.51-3.77-1.07-1.63-1.61-3.54-1.61-5.73,0-2.05,.45-3.89,1.36-5.52,.91-1.63,2.31-3,4.19-4.12s4.3-1.91,7.23-2.38l13.14-2.17v6.29l-11.6,1.96c-2.1,.37-3.63,1.05-4.61,2.03-.98,.98-1.47,2.19-1.47,3.63s.55,2.62,1.64,3.53c1.09,.91,2.5,1.36,4.23,1.36,2.1,0,3.95-.46,5.56-1.4,1.61-.93,2.86-2.18,3.77-3.74,.91-1.56,1.36-3.29,1.36-5.21v-9.71c0-1.82-.7-3.32-2.1-4.51-1.4-1.19-3.24-1.78-5.52-1.78-2.05,0-3.85,.54-5.42,1.61-1.56,1.07-2.71,2.49-3.46,4.26l-6.64-3.28c.75-1.86,1.9-3.52,3.46-4.96,1.56-1.44,3.4-2.56,5.52-3.35,2.12-.79,4.39-1.19,6.81-1.19,2.98,0,5.62,.56,7.93,1.68,2.31,1.12,4.1,2.67,5.38,4.65,1.28,1.98,1.92,4.27,1.92,6.88v25.43h-7.55v-6.78l1.54,.14c-.88,1.54-2,2.86-3.35,3.98-1.35,1.12-2.91,1.98-4.68,2.59-1.77,.6-3.7,.91-5.8,.91Z"></path><path class="cls-1" d="M483.89,83.72c-3.77,0-7.13-.87-10.06-2.62-2.93-1.75-5.24-4.11-6.92-7.09-1.68-2.98-2.51-6.36-2.51-10.13s.84-7.08,2.51-10.06c1.68-2.98,3.98-5.32,6.92-7.02,2.94-1.7,6.29-2.55,10.06-2.55,2.56,0,4.96,.45,7.2,1.36,2.24,.91,4.18,2.16,5.83,3.74,1.65,1.58,2.88,3.45,3.67,5.59l-6.99,3.14c-.79-1.96-2.05-3.53-3.77-4.72-1.72-1.19-3.7-1.78-5.94-1.78s-4.06,.54-5.76,1.61c-1.7,1.07-3.04,2.54-4.02,4.4-.98,1.86-1.47,3.98-1.47,6.36s.49,4.51,1.47,6.39c.98,1.89,2.32,3.37,4.02,4.44,1.7,1.07,3.62,1.61,5.76,1.61s4.21-.59,5.94-1.78c1.72-1.19,2.98-2.78,3.77-4.79l6.99,3.28c-.75,2-1.95,3.81-3.6,5.42-1.65,1.61-3.6,2.88-5.83,3.81-2.24,.93-4.66,1.4-7.27,1.4Z"></path><path class="cls-1" d="M525.96,83.72c-3.77,0-7.1-.87-9.99-2.62-2.89-1.75-5.15-4.12-6.78-7.13-1.63-3-2.45-6.37-2.45-10.1s.81-7.2,2.45-10.13,3.85-5.25,6.67-6.95c2.82-1.7,5.97-2.55,9.47-2.55,2.89,0,5.45,.49,7.69,1.47,2.24,.98,4.12,2.32,5.66,4.02,1.54,1.7,2.71,3.65,3.53,5.83,.81,2.19,1.22,4.52,1.22,6.99,0,.61-.02,1.23-.07,1.89-.05,.65-.14,1.26-.28,1.82h-30.12v-6.29h25.57l-3.7,2.86c.42-2.28,.26-4.32-.49-6.11-.75-1.79-1.91-3.21-3.49-4.26-1.58-1.05-3.42-1.57-5.52-1.57s-3.89,.52-5.52,1.57c-1.63,1.05-2.89,2.55-3.77,4.51s-1.23,4.29-1.05,6.99c-.23,2.56,.13,4.8,1.08,6.71,.96,1.91,2.31,3.4,4.05,4.47,1.75,1.07,3.71,1.61,5.9,1.61,2.33,0,4.29-.51,5.87-1.54,1.58-1.02,2.86-2.35,3.84-3.98l6.43,3.21c-.75,1.77-1.9,3.35-3.46,4.75-1.56,1.4-3.42,2.5-5.59,3.32s-4.55,1.22-7.16,1.22Z"></path></g></g></g></svg> 