<svg width="85" height="91" viewBox="0 0 85 91" fill="none" xmlns="http://www.w3.org/2000/svg">
<path d="M40.4518 47.0621C34.0804 46.2781 27.8905 48.3242 16.9988 45.3599C15.8864 45.0568 15.4762 46.2309 16.0778 47.2145C19.004 51.9999 33.7837 48.2498 40.4809 47.5593C40.7739 47.5294 40.744 47.0984 40.4518 47.0621Z" fill="#D7153A"/>
<path d="M68.3439 45.3606C57.4521 48.324 51.2631 46.2779 44.8908 47.0628C44.5986 47.0991 44.5687 47.5301 44.8618 47.56C51.5589 48.2514 66.3386 52.0015 69.2648 47.2152C69.8664 46.2317 69.4563 45.0576 68.3439 45.3606V45.3606Z" fill="#D7153A"/>
<path d="M20.3183 38.5139C18.1035 35.262 16.2934 31.6244 14.8924 27.623C10.666 28.8589 6.33886 30.6436 1.93551 32.9791C1.36661 33.2813 1.01637 33.8456 0.999133 34.4889C0.9828 35.1323 1.30219 35.7139 1.85567 36.045C10.3829 41.1534 18.7205 44.076 26.6761 44.7529C24.3061 43.3056 22.1348 41.1834 20.3174 38.5148L20.3183 38.5139Z" fill="#D7153A"/>
<path d="M8.43802 27.6468C10.3879 26.8664 12.3215 26.195 14.2378 25.6324C13.5527 23.4031 12.9884 21.0676 12.5447 18.6305C10.3425 18.3555 8.06238 18.1777 5.7051 18.0997C5.68423 18.0997 5.66427 18.0988 5.6434 18.0988C5.02549 18.0988 4.46838 18.41 4.14355 18.9399C3.80874 19.487 3.79423 20.1494 4.10544 20.7119C5.47463 23.1881 6.92003 25.5 8.43802 27.6477V27.6468Z" fill="#D7153A"/>
<path d="M29.3908 43.8291C30.7128 44.4134 32.0666 44.741 33.3786 44.8091C30.1675 42.508 27.6442 38.6037 26.1906 33.6305C24.3179 27.2256 23.6918 20.161 24.3097 12.5374C21.7836 10.9414 19.0443 9.447 16.0955 8.06058C15.5266 7.79291 14.8751 7.84463 14.3525 8.1994C13.8316 8.55327 13.5431 9.13851 13.5821 9.76458C14.2681 20.826 17.1153 30.1037 22.0431 37.3398C24.1101 40.3739 26.6515 42.6187 29.3917 43.8291H29.3908Z" fill="#D7153A"/>
<path d="M35.6777 7.62334C34.166 5.78778 32.5264 3.97219 30.7562 2.17836C30.4132 1.83085 29.9704 1.64575 29.5141 1.64575C29.3507 1.64575 29.1856 1.66934 29.0223 1.71743C28.4026 1.90072 27.9525 2.39794 27.8182 3.0476C27.4725 4.71712 26.8147 8.12057 26.5234 11.485C28.7864 12.9767 30.876 14.5527 32.7905 16.2114C33.5336 13.3823 34.4981 10.5141 35.6777 7.62334Z" fill="#D7153A"/>
<path d="M83.408 32.9791C79.0047 30.6436 74.6784 28.8589 70.4511 27.623C69.0502 31.6244 67.24 35.2629 65.0252 38.5139C63.2078 41.1824 61.0365 43.3047 58.6665 44.7519C66.6221 44.076 74.9597 41.1525 83.487 36.0441C84.0395 35.7129 84.3598 35.1313 84.3435 34.488C84.3272 33.8447 83.9769 33.2804 83.4071 32.9782L83.408 32.9791Z" fill="#D7153A"/>
<path d="M76.9062 27.6477C78.4242 25.5 79.8696 23.1881 81.2388 20.7119C81.55 20.1494 81.5355 19.487 81.2007 18.9399C80.8768 18.41 80.3187 18.0988 79.7008 18.0988C79.68 18.0988 79.66 18.0988 79.6391 18.0997C77.2809 18.1777 75.0008 18.3564 72.7996 18.6305C72.3559 21.0676 71.7924 23.4031 71.1064 25.6324C73.0219 26.1959 74.9554 26.8664 76.9062 27.6468V27.6477Z" fill="#D7153A"/>
<path d="M59.1528 33.6305C57.6984 38.6037 55.1759 42.508 51.9648 44.8091C53.2769 44.7401 54.6306 44.4125 55.9526 43.8291C58.6937 42.6187 61.2343 40.3739 63.3012 37.3398C68.229 30.1037 71.0762 20.826 71.7622 9.76458C71.8012 9.13851 71.5127 8.55327 70.9919 8.1994C70.4692 7.84463 69.8178 7.79291 69.2489 8.06058C66.3 9.44791 63.5607 10.9414 61.0347 12.5374C61.6526 20.161 61.0265 27.2256 59.1537 33.6305H59.1528Z" fill="#D7153A"/>
<path d="M58.8207 11.4842C58.5295 8.11972 57.8716 4.71626 57.5259 3.04675C57.3917 2.39709 56.9416 1.89986 56.3219 1.71658C56.1586 1.66849 55.9934 1.6449 55.8301 1.6449C55.3728 1.6449 54.9309 1.83 54.588 2.17751C52.8177 3.97133 51.1781 5.78784 49.6665 7.62249C50.8461 10.5124 51.8097 13.3814 52.5537 16.2105C54.4682 14.5519 56.5587 12.9758 58.8207 11.4842V11.4842Z" fill="#D7153A"/>
<path d="M42.6658 28.2011C44.808 23.9683 48.2296 20.1747 50.7992 17.7784C49.3883 12.0313 47.2161 6.60805 44.2174 0.936223C43.908 0.350985 43.3263 0.00256348 42.6658 0.00256348C42.0053 0.00256348 41.4255 0.351892 41.1142 0.936223C38.0855 6.62801 35.8761 12.2917 34.5405 17.7775C37.2235 20.2627 40.7622 24.3158 42.6658 28.2011V28.2011Z" fill="#D7153A"/>
<path d="M50.5376 43.2203C52.7588 41.6578 54.9809 38.9349 56.39 35.1485C59.1193 27.8163 59.4024 19.6492 59.0104 13.8685C54.0636 17.1713 46.2132 24.068 43.532 31.442C42.2699 34.9126 41.6819 39.639 42.6537 42.2748C43.0602 43.3773 43.7506 44.2129 44.7006 44.6113C46.1388 45.2146 48.35 44.7592 50.5367 43.2203H50.5376Z" fill="#D7153A"/>
<path d="M41.5574 30.7978C40.9032 29.2698 40.1818 27.8299 39.064 26.2112C35.9001 21.6327 31.6355 17.5043 26.3285 13.8667C26.2731 14.7241 25.4992 23.9845 28.2167 33.038C30.2836 39.9248 33.8159 42.7303 35.7522 43.8137C37.7002 44.9034 39.4814 45.1602 41.5728 44.6403C39.4542 41.7531 39.7173 35.8254 41.5583 30.7978H41.5574Z" fill="#D7153A"/>
<path d="M9.36524 61.9958L21.276 79.23H26.1212V53.4568H20.7007V70.0358L9.30626 53.5149L9.26633 53.4568H3.96289V79.23H9.36524V61.9958Z" fill="white"/>
<path d="M48.3282 67.6432C47.8491 66.8683 47.1287 66.1651 46.186 65.5535C45.2441 64.9411 43.9612 64.4738 42.3751 64.1635L37.9618 63.2552C36.6289 62.9676 35.7098 62.5947 35.2298 62.1492C34.7625 61.7146 34.5248 61.1375 34.5248 60.4325C34.5248 59.9833 34.6273 59.5741 34.8287 59.2166C35.0302 58.8573 35.3214 58.5397 35.6961 58.273C36.0727 58.0053 36.5409 57.7939 37.0862 57.6442C37.6388 57.4936 38.2585 57.4174 38.9299 57.4174C39.8137 57.4174 40.6112 57.5344 41.299 57.7658C41.9795 57.9962 42.543 58.3746 42.9749 58.8909C43.4068 59.4081 43.6708 60.1113 43.7624 60.9814L43.7751 61.1021H49.251L49.2482 60.9651C49.2238 59.4852 48.8055 58.1287 48.007 56.9319C47.2058 55.7342 46.0254 54.7715 44.4965 54.0711C42.9721 53.3715 41.0694 53.0167 38.841 53.0167C36.9691 53.0167 35.2543 53.3443 33.7417 53.9894C32.2246 54.6363 31.0079 55.5709 30.1241 56.7659C29.2377 57.9681 28.7949 59.4054 28.8076 61.0413C28.8439 63.0375 29.4491 64.658 30.6078 65.8593C31.761 67.0552 33.3425 67.85 35.3069 68.2211L39.7583 69.1303C40.574 69.2927 41.3144 69.5059 41.9586 69.7636C42.5911 70.0168 43.0965 70.347 43.4585 70.7436C43.8133 71.131 43.9929 71.6391 43.9929 72.2543C43.9929 72.9384 43.7697 73.5146 43.3287 73.9674C42.8769 74.4301 42.2635 74.7812 41.5077 75.0099C40.7364 75.2431 39.8754 75.361 38.9472 75.361C38.0189 75.361 37.2078 75.2195 36.4665 74.9409C35.7315 74.666 35.1136 74.2641 34.6309 73.7469C34.15 73.2315 33.8207 72.5882 33.6501 71.8333L33.6265 71.728H28.0454L28.0599 71.8768C28.1915 73.1834 28.5971 74.343 29.2658 75.3229C29.9327 76.2947 30.7874 77.1159 31.8064 77.7637C32.8217 78.4088 33.9613 78.8997 35.1917 79.2227C36.4211 79.5439 37.6905 79.7072 38.9644 79.7072C41.0504 79.7072 42.9005 79.377 44.4647 78.7264C46.0344 78.0722 47.2775 77.1721 48.1585 76.0506C49.0468 74.9219 49.4969 73.6335 49.4969 72.2207C49.4969 71.5529 49.4216 70.8116 49.2718 70.015C49.1203 69.212 48.8027 68.4144 48.3273 67.6459L48.3282 67.6432Z" fill="white"/>
<path d="M77.4508 53.4568L72.807 69.9406L68.1133 53.4568H64.1881L59.5453 69.9378L54.9042 53.4568H49.5771L57.1698 79.23H61.4117L66.1417 62.9141L70.8372 79.23H75.1498L82.7606 53.4568H77.4508Z" fill="white"/>
<path d="M7.18424 87.3543H8.80839L8.76302 87.6864C8.74669 87.8143 8.70405 87.945 8.63418 88.0775C8.56704 88.209 8.47086 88.3352 8.34927 88.4504C8.2286 88.5638 8.08161 88.6582 7.91284 88.7308C7.74589 88.8015 7.55172 88.8369 7.33486 88.8369C7.10167 88.8369 6.87484 88.797 6.6607 88.7181C6.44929 88.6437 6.25693 88.5112 6.08907 88.3243C5.91849 88.1355 5.78148 87.8742 5.68077 87.5467C5.57733 87.2146 5.5247 86.7881 5.5247 86.2782C5.5247 85.6521 5.60364 85.1431 5.76061 84.7657C5.91486 84.3955 6.12446 84.1242 6.38578 83.9599C6.648 83.793 6.94561 83.7086 7.27044 83.7086C7.53811 83.7086 7.77402 83.7667 7.97272 83.8801C8.17234 83.9944 8.33929 84.1505 8.46904 84.3419C8.60061 84.537 8.68862 84.752 8.73127 84.9825L8.75213 85.0932H10.7002L10.6939 84.9517C10.6766 84.5787 10.5823 84.2176 10.4126 83.8792C10.2429 83.538 10.0043 83.2277 9.70575 82.9564C9.41087 82.6878 9.05519 82.4719 8.6496 82.3149C8.24856 82.1598 7.79761 82.0808 7.30855 82.0808C6.55545 82.0808 5.88492 82.255 5.3142 82.5989C4.74348 82.9455 4.29525 83.4427 3.9804 84.0761C3.66555 84.7067 3.50586 85.4625 3.50586 86.3208C3.50586 87.1792 3.65739 87.9123 3.95681 88.5348C4.25805 89.1636 4.69267 89.6572 5.24978 90.0019C5.80598 90.3449 6.46925 90.5191 7.22053 90.5191C7.66241 90.5191 8.0444 90.4574 8.35472 90.3368C8.65958 90.2188 8.92272 90.0627 9.13957 89.8722C9.23938 89.7833 9.33193 89.6935 9.41631 89.6027V90.4084H10.781V85.9878L7.18424 85.9706V87.3525V87.3543Z" fill="white"/>
<path d="M17.5388 82.5944C16.9762 82.2532 16.3048 82.0808 15.5445 82.0808C14.7841 82.0808 14.1081 82.255 13.5392 82.5971C12.9703 82.941 12.523 83.4364 12.21 84.0688C11.8996 84.6958 11.7427 85.4525 11.7427 86.3172C11.7427 87.1819 11.8978 87.9287 12.2036 88.552C12.5148 89.1808 12.9603 89.6717 13.5265 90.0092C14.0918 90.3486 14.7705 90.521 15.5445 90.521C16.3184 90.521 16.9862 90.3486 17.5497 90.0092C18.1168 89.669 18.5587 89.1781 18.8635 88.5475C19.1657 87.9232 19.319 87.1719 19.319 86.3163C19.319 85.4607 19.1639 84.6903 18.8581 84.0643C18.5487 83.4309 18.1041 82.9364 17.5388 82.5944V82.5944ZM16.4799 88.6754C16.2204 88.8451 15.9056 88.9304 15.5445 88.9304C15.1833 88.9304 14.8739 88.8442 14.6117 88.6745C14.3513 88.5066 14.1444 88.2326 13.9983 87.8606C13.8477 87.4786 13.7715 86.966 13.7715 86.3372C13.7715 85.7084 13.8477 85.174 13.9992 84.7784C14.1453 84.3936 14.3522 84.1096 14.6135 83.9336C14.8766 83.7576 15.1897 83.6687 15.5445 83.6687C15.8992 83.6687 16.2104 83.7576 16.4727 83.9336C16.7322 84.1105 16.9372 84.3936 17.0815 84.7756C17.2303 85.1676 17.3056 85.6939 17.3056 86.3372C17.3056 86.9805 17.2312 87.4768 17.0842 87.8597C16.9418 88.2317 16.7385 88.5057 16.479 88.6745L16.4799 88.6754Z" fill="white"/>
<path d="M23.2114 87.9823L21.2225 82.2197H19.416L22.2088 90.3822H24.2068L27.0232 82.2197H25.2158L23.2114 87.9823Z" fill="white"/>
<path d="M29.6693 87.0695H32.9911V85.478H29.6784V83.8321H33.4937L33.5001 82.2197H27.811V90.3822H33.5536V88.7572L29.6693 88.7526V87.0695Z" fill="white"/>
<path d="M40.2454 86.575C40.4658 86.3763 40.6473 86.1222 40.7861 85.8183C40.9222 85.517 40.9912 85.1459 40.9912 84.7131C40.9912 84.2295 40.8905 83.7967 40.6909 83.4247C40.4912 83.0472 40.1746 82.7478 39.749 82.5346C39.3298 82.3259 38.79 82.2197 38.1439 82.2197H34.6797V90.3804H36.5379V87.3408H37.9062L39.1937 90.3804H41.1445L39.6447 87.0005C39.8597 86.8835 40.0612 86.741 40.2444 86.575H40.2454ZM39.1121 84.7512C39.1121 85.0742 39.0041 85.3301 38.7818 85.5361C38.5595 85.7393 38.2492 85.8428 37.8599 85.8428H36.5388V83.7069H37.9761C38.3109 83.7069 38.5804 83.7994 38.7981 83.99C39.0095 84.1778 39.113 84.4264 39.113 84.7521L39.1121 84.7512Z" fill="white"/>
<path d="M47.3998 87.1439L44.0036 82.2197H42.2207V90.3822H44.0789V85.2548L47.6221 90.3822H49.2626V82.2197H47.3998V87.1439Z" fill="white"/>
<path d="M54.9538 87.5404L53.2471 82.2197H50.7002V90.3822H52.5748V85.1232L54.227 90.3822H55.6743L57.3401 85.0942V90.3822H59.2193V82.2197H56.6778L54.9538 87.5404Z" fill="white"/>
<path d="M62.5155 87.0695H65.8382V85.478H62.5264V83.8321H66.3399L66.3463 82.2197H60.6572V90.3822H66.4016V88.7572L62.5155 88.7526V87.0695Z" fill="white"/>
<path d="M72.7701 87.143L69.3757 82.2197H67.5928V90.3822H69.4492V85.2548L72.9924 90.3822H74.6329V82.2197H72.7701V87.143Z" fill="white"/>
<path d="M75.417 83.9092H77.8006V90.3822H79.6697V83.9092H81.9989V82.2197H75.417V83.9092Z" fill="white"/>
</svg>
