<?xml version="1.0" encoding="utf-8"?>
<!-- Generator: Adobe Illustrator 21.0.0, SVG Export Plug-In . SVG Version: 6.00 Build 0)  -->
<svg version="1.1" id="Layer_1" xmlns="http://www.w3.org/2000/svg" xmlns:xlink="http://www.w3.org/1999/xlink" x="0px" y="0px"
	 viewBox="0 0 628.3 503.2" style="enable-background:new 0 0 628.3 503.2;" xml:space="preserve">
<style type="text/css">
	.st0{fill:#00A0D2;}
</style>
<title>final logo</title>
<g>
	<path class="st0" d="M193,418.3l-2.3,0.7c-8.8,2.8-17.4,6.6-26.3,9.1c-4.8,1.3-11,1.5-15.1-1.7c-5.3-4.1-3.8-12,0-16.5
		c4.6-5.5,11.9-8.4,18.4-10.8c14.9-5.6,31.1-8.9,46.6-12.2c37.8-8,76-13.5,114.5-16.6c38.7-3.2,77.5-4.6,116.3-2.8
		c11,0.5,22,1.3,32.9,2.3c5.4,0.5,10.8,1.1,16.2,1.7c1.4,0.1,2.7,0.6,3.9,1.4c2.1,1.5,3.4,3.9,2.1,7.8c-1.4,3-4.9,4-9.9,3.8
		c-15.1-0.7-30.2-2.2-45.4-2.6c-27.7-0.7-55.5,0.1-83.1,2.4c-36,3-72,8.3-107.1,16.9C234,406.2,213.2,411.9,193,418.3z"/>
	<path class="st0" d="M552.9,248.4c-4.5,2.9-9.6,4.9-14.9,5.8c-1.1-7.7-3.5-15.2-7-22.1c-4.4-8.5-10.9-15.7-19.1-20.8
		c-8.2-5.1-17.9-7.3-29-6.6c-21.5,1.3-39.2,14.9-48.5,33.9c-0.8,1.6-1.5,3.2-2.2,4.9c-1,2.5-1.9,5-2.6,7.5
		c-4.6,1.3-9.4,2.4-14.1,3.3c-3-14.3-9.3-25.9-19.1-34.9s-21.7-12.7-36-11.2c-11.3,1.1-22.1,5.5-30.9,12.7
		c-4.5,3.7-8.5,8.1-11.9,12.9c-3.8,5.6-6.7,11.8-8.8,18.2c-1.1,3.2-1.9,6.5-2.6,9.9c-2,11-1.9,22.2,0.2,33.1c0.7,3.5,1.6,7,2.8,10.3
		c-2.4,1.8-4.5,3.5-5.3,4.2c-3.5,3.1-7.4,5.7-11.6,7.7c-3.5,1.8-7.4,2.8-11.3,2.9c-6.1,0-10.9-1.8-14.4-5.3
		c-3.2-3.2-13.2-13-15.5-28.8l2.6-1.8c4.5-3.1,8.4-7.5,12.2-11.4c9.9-10.2,18.8-21.2,26.6-33c10.9-16.2,19.6-33.9,25.8-52.4
		c6.6-20,12.9-41.3,12.9-62.6c0-16.3-2.7-28.8-8.1-37.5c-5.4-8.7-12.8-13.1-22.2-13.1c-16.7,0-32.2,9.6-44.3,31.5
		s-19.2,37.6-29.2,80.8c-4.5,19.9-7.4,40.2-8.6,60.6c-0.6,8.4-0.9,16.8-1,25.2c-3.4,1.8-7.1,3.6-10.8,5.5c-0.3-1-0.5-2-0.9-3
		c-4.6-14.7-15.5-26.6-29.7-32.4c-17.2-7-36.4-5.1-51.2,6.3c-6,4.4-11.1,9.9-15.1,16.2c0.2-0.4-0.1-1.8-0.1-2.3c0-2.5,0-5,0-7.5
		c0.4-23.7,3.3-47.2,7.6-70.5c1-5.5,2.1-10.9,3.3-16.3c1-4.6,2.2-9.3,3.4-13.9c2.6-9.4,5.7-19.2,5.6-29c-0.1-6.7-6.7-11.3-13.2-10.9
		c-9,0.4-17.1,5.8-20.9,13.9c-4.5,9.1-8.7,22.8-9.6,25.8c-8.7,32-15.6,64.7-17.4,97.8c-1.7,30.4-0.6,66,14.6,93.3
		c2.5,4.5,5.5,8.7,8.9,12.5c2.3,2.5,4.8,4.8,7.4,6.9c5.5,4.2,11.7,7.3,18.3,9.2c13.8,4.1,28.6,4.2,42.2-1.1
		c12.4-4.8,22.9-13.5,30.8-24c8-10.7,13.5-23,16.2-36c4.2-2.2,9.2-5,14.7-8.3c0.4,1.5,0.8,2.9,1,3.5c1.4,4.6,3.3,9.1,5.5,13.3
		c7.7,13.7,19.3,26.6,35.3,30c3.6,0.8,7.3,1.1,11,1.1c12.7,0.1,25.1-4.4,34.8-12.7c3.1-2.6,8.7-7.2,13.4-12.1
		c3.6,3.6,7.6,6.6,12.1,9.1c14,7.6,31.5,7.2,45.9,0.7c6.9-3.2,13.1-7.7,18.1-13.4c9.5-10.6,15.3-23.9,17.2-40
		c3.5-0.5,6.9-1.1,10.2-1.8c0.5,10,3.1,19.8,7.7,28.7c4.3,8.5,10.8,15.7,18.9,20.8c8.1,5.1,17.7,7.3,28.8,6.6
		c11-0.6,21.6-4.5,30.3-11.3c8.9-6.9,15.8-16,20.6-27.5c2.9-7,4.7-14.4,5.5-21.9c9.3-3,15.3-7.7,19.5-17.2c1.1-2.4,1.7-5,1.9-7.6
		C560.1,248.3,556.4,246.2,552.9,248.4z M163.9,322.5c-1.2,1.7-3,4.1-7.9,7.8c-6.1,5.9-19.8,9-27.1,6.5c-8.6-2.9-13-14.6-13.1-24.7
		c-0.8-22,12.7-36.7,28.9-41.2C176.6,262.1,174,309.2,163.9,322.5z M245.8,256.6c-1-21.4,8.6-60.6,11.4-69.6
		c6.7-20.9,14.5-45.8,21.8-59.1c2.4-4.6,5-9,7.8-13.3c2.3-3.2,6.2-9.5,10.7-9.5c6.2,0,8.1,7.2,8.9,12.1c1,6.5,0.2,13.2-0.9,19.7
		c-1.3,8.3-3.1,16.4-5.2,24.5c-3.6,13.7-8.4,27.1-14.5,40c-4.7,10-10.2,19.6-16.5,28.6c-4.4,6.3-9.2,12.4-14.4,18
		c-2.3,2.5-4.8,4.9-7.4,7.2C247,255.7,246.4,256.2,245.8,256.6z M379,303.1c-3.9,5.3-8.9,8.3-14.9,8.9c-5.4,0.6-10.5-1.7-15.1-6.7
		s-7.4-12.7-8.5-23c-1.3-13.1,0.1-23.6,4.3-31.3c4.2-7.7,9.9-11.4,17.6-12.8l1.4-0.1c-0.3,3-0.2,6.1,0.1,9.1c0.7,7,3,13.8,6.7,19.8
		c3.6,6,8.8,10.8,15,14.1C385.1,290.4,382.9,297.7,379,303.1z M498.9,296.3c-4,7.2-9.2,11-15.6,11.4h0c-16.1,1-20.8-17.6-21.6-30.1
		c-0.8-13.5,0.8-23.9,4.8-31c4-7.1,9.4-10.1,16.2-11.3c0.8-0.1,1.7-0.2,2.6-0.2c0.1,5.1,1.6,28.1,18.6,37.6
		C503.8,282.6,502.1,290.5,498.9,296.3z"/>
</g>
</svg>
