<svg width="7261" height="1385" viewBox="0 0 7261 1385" fill="none" xmlns="http://www.w3.org/2000/svg">
<path d="M445.392 737.927V640.573H454.633C462.369 640.573 468.602 646.806 468.602 654.327V697.739C483.646 684.415 496.325 679.042 513.303 678.827C545.755 678.182 573.908 702.252 576.702 734.704C579.925 773.388 551.772 802.4 515.022 802.4C474.619 802.186 445.392 777.256 445.392 737.927ZM468.172 745.664C470.536 765.866 489.663 782.414 510.08 782.844C536.513 783.273 554.566 766.081 554.566 740.506C554.566 714.932 536.728 698.169 511.154 698.169C483.646 698.169 464.948 717.941 468.172 745.664ZM614.956 680.976V698.384C629.569 682.266 638.166 677.968 655.144 677.968C660.087 677.968 665.03 678.397 669.973 679.257V702.252C664.815 700.748 659.442 700.103 654.069 700.103C641.819 700.103 631.504 704.187 623.767 711.708C617.105 718.371 615.17 723.528 615.17 734.059V798.317H591.101V680.976H614.956ZM675.56 719.875C676.85 708.485 678.999 702.252 683.942 696.45C693.828 684.415 711.45 678.182 736.595 678.182C756.581 678.182 770.98 681.191 781.081 687.853C789.462 693.226 792.901 701.393 792.901 715.577V767.585C792.901 778.975 795.91 783.059 804.076 782.844C805.796 782.844 807.73 782.629 809.449 782.414V798.102C805.366 799.392 801.068 800.036 796.984 800.036C781.941 800.036 775.064 795.523 770.335 782.414C755.507 795.953 740.248 801.756 718.327 801.756C689.099 801.756 671.047 788.431 671.047 766.725C670.832 754.476 678.139 743.085 689.529 738.142C698.341 734.274 703.713 733.199 729.073 730.621C750.779 728.471 754.432 728.042 760.665 726.107C767.327 723.958 770.335 720.305 770.335 714.502C770.335 701.823 759.805 696.235 737.669 696.235C716.823 696.235 705.862 700.318 701.564 711.064C699.415 716.436 694.257 720.09 688.455 720.09L675.56 719.875ZM770.335 739.862C755.077 744.375 739.603 747.169 723.7 748.458C702.209 750.607 695.547 754.69 695.547 765.221C695.547 777.041 705.433 783.273 724.775 783.273C740.678 783.273 752.928 779.19 761.524 771.453C768.401 765.006 770.121 760.493 770.121 749.318V739.862H770.335ZM867.26 798.102H861.027C855.655 798.102 850.712 795.094 848.348 790.151L796.769 680.976H811.168C819.55 680.976 827.072 685.704 830.51 693.441L864.896 771.883L900.571 693.226C904.009 685.704 911.531 680.976 919.913 680.976H933.022L880.154 790.365C877.576 795.308 872.633 798.317 867.26 798.102ZM949.141 746.524C951.505 769.089 969.342 783.059 995.561 783.059C1010.6 783.059 1021.78 778.545 1028.66 769.734C1032.74 764.576 1038.97 761.782 1045.42 761.782H1059.39C1047.14 788.216 1025.65 801.326 993.412 801.326C953.224 801.326 925.93 776.826 925.93 740.291C925.93 703.757 953.654 677.968 993.842 677.968C1022.85 677.968 1046.28 691.077 1055.74 712.998C1059.82 723.099 1061.54 731.91 1061.54 746.524H949.141ZM1037.25 728.257C1031.88 707.625 1015.76 696.02 993.627 696.02C971.491 696.02 955.373 707.625 949.785 728.257H1037.25Z" fill="#131525"/>
<path d="M371.424 652.178L378.087 635.845C378.087 635.845 369.705 626.819 359.389 616.503C349.074 606.188 327.368 612.205 327.368 612.205L302.653 584.267H215.615L190.9 612.42C190.9 612.42 169.194 606.403 158.878 616.718C148.563 627.034 140.181 636.06 140.181 636.06L146.843 652.393L138.462 676.463C138.462 676.463 163.391 770.594 166.185 782.199C171.988 804.764 175.856 813.576 192.189 825.181C208.523 836.786 237.965 856.558 242.908 859.567C247.636 862.575 253.869 867.733 259.241 867.733C264.614 867.733 270.632 862.575 275.574 859.567C280.302 856.558 309.96 836.571 326.293 825.181C342.626 813.791 346.495 804.979 352.297 782.199C355.306 770.594 380.021 676.463 380.021 676.463L371.424 652.178Z" fill="url(#paint0_linear_2094_137)"/>
<path d="M320.491 630.258C320.491 630.258 352.298 668.727 352.298 677.108C352.298 685.489 348.214 687.424 344.131 691.722C340.048 696.02 322.425 714.717 320.276 717.081C317.912 719.445 313.399 723.099 315.978 729.761C318.772 736.208 322.855 744.59 318.342 753.186C313.829 761.568 306.092 767.37 301.149 766.296C296.206 765.436 284.386 759.204 280.088 756.41C275.79 753.616 262.25 742.441 262.25 738.142C262.25 733.844 276.434 726.107 279.013 724.388C281.592 722.669 293.412 715.792 293.627 713.213C293.842 710.634 293.842 709.774 290.189 703.112C286.75 696.45 280.303 687.639 281.377 681.836C282.452 676.033 292.553 673.025 299.86 670.231C307.166 667.437 321.136 662.279 322.855 661.42C324.574 660.56 324.144 659.915 318.772 659.27C313.399 658.841 298.57 656.692 291.693 658.626C284.816 660.56 273.426 663.354 272.351 664.858C271.491 666.363 270.632 666.363 271.491 671.735C272.351 676.893 277.509 702.252 277.939 706.766C278.369 711.279 279.443 714.287 274.5 715.362C269.772 716.437 261.606 718.371 258.812 718.371C256.018 718.371 247.851 716.437 243.123 715.362C238.395 714.287 239.255 711.279 239.685 706.766C240.115 702.252 245.057 677.108 246.132 671.735C246.992 666.577 246.347 666.363 245.272 664.858C244.413 663.354 232.808 660.56 225.931 658.626C219.053 656.692 204.225 658.626 198.852 659.27C193.479 659.7 193.049 660.56 194.769 661.42C196.488 662.279 210.457 667.437 217.764 670.231C225.071 673.025 235.172 676.033 236.246 681.836C237.321 687.639 231.088 696.45 227.435 703.112C223.996 709.774 223.781 710.419 223.996 713.213C224.211 715.792 236.031 722.669 238.61 724.388C241.189 726.107 255.373 733.844 255.373 738.142C255.373 742.441 241.834 753.616 237.536 756.41C233.237 759.204 221.632 765.221 216.474 766.296C211.532 767.155 203.795 761.568 199.282 753.186C194.769 744.805 198.852 736.423 201.646 729.761C204.44 723.314 199.712 719.66 197.347 717.081C195.628 714.502 178.221 695.805 174.137 691.722C170.054 687.424 166.186 685.275 166.186 677.108C166.186 668.941 197.992 630.258 197.992 630.258C197.992 630.258 224.856 635.415 228.509 635.415C232.163 635.415 239.9 632.407 247.207 630.043C254.514 627.679 259.242 627.679 259.242 627.679C259.242 627.679 263.97 627.679 271.277 630.043C278.583 632.407 286.32 635.415 289.974 635.415C293.627 635.415 320.491 630.258 320.491 630.258Z" fill="white"/>
<path d="M296.636 777.471C298.57 778.76 297.495 781.124 295.561 782.199C293.842 783.488 269.557 802.185 267.408 804.335C265.044 806.484 261.605 809.707 259.241 809.707C256.877 809.707 253.439 806.269 251.075 804.335C248.711 802.185 224.641 783.488 222.922 782.199C221.202 780.909 219.913 778.545 221.847 777.471C223.781 776.181 230.014 773.173 238.395 768.66C246.991 764.146 257.522 760.493 259.241 760.493C260.961 760.493 271.491 764.146 280.088 768.66C288.469 773.173 294.487 776.396 296.636 777.471Z" fill="white"/>
<path d="M327.367 612.42L302.653 584.267H215.614L190.9 612.42C190.9 612.42 169.194 606.403 158.878 616.718C158.878 616.718 187.891 614.139 197.777 630.258C197.777 630.258 224.64 635.415 228.294 635.415C231.947 635.415 239.684 632.407 246.991 630.043C254.298 627.679 259.026 627.679 259.026 627.679C259.026 627.679 263.754 627.679 271.061 630.043C278.368 632.407 286.105 635.415 289.758 635.415C293.412 635.415 320.275 630.258 320.275 630.258C330.161 614.139 359.174 616.718 359.174 616.718C349.073 606.403 327.367 612.42 327.367 612.42Z" fill="url(#paint1_linear_2094_137)"/>
<mask id="mask0_2094_137" style="mask-type:luminance" maskUnits="userSpaceOnUse" x="1333" y="544" width="924" height="364">
<path d="M1333.46 544.86V907.14H2256.54V544.86H1333.46Z" fill="white"/>
</mask>
<g mask="url(#mask0_2094_137)">
<path d="M1771.3 652.483C1749.46 652.483 1743.18 666.207 1743.18 694.331C1743.18 725.757 1749.62 738.986 1771.3 738.986C1793.13 738.986 1799.9 725.588 1799.9 694.331C1799.9 666.207 1793.29 652.483 1771.3 652.483ZM1771.3 757.841C1729.95 757.841 1720.68 729.559 1720.68 694.331C1720.68 662.573 1730.1 633.459 1771.3 633.459C1812.49 633.459 1822.41 662.573 1822.41 694.331C1822.41 729.559 1812.49 757.841 1771.3 757.841ZM1874.24 654.959H1856.05V694.989H1874.24C1889.13 694.989 1896.07 687.543 1896.07 673.976C1896.07 661.246 1888.8 654.959 1874.24 654.959ZM1874.24 713.854H1854.89C1855.21 715.007 1856.05 716.993 1856.05 718.146V755.36H1833.88V636.108H1874.24C1904.68 636.108 1918.57 652.318 1918.57 673.976C1918.57 695.494 1905.01 713.854 1874.24 713.854ZM1927.96 755.36V636.108H2007.36V654.637H1950.13V683.25H2002.4L1996.93 701.773H1949.47C1949.96 702.926 1950.13 704.248 1950.13 704.926V736.833H2007.52V755.36H1927.96ZM2060.37 654.743H2042.01V690.965H2060.37C2075.92 690.965 2082.03 684.009 2082.03 673.101C2082.03 661.184 2075.42 654.743 2060.37 654.743ZM2084.85 755.471L2057.4 713.459C2056.56 712.296 2056.23 710.815 2055.9 709.474H2042.01V755.471H2019.85V636.214H2060.37C2090.64 636.214 2104.52 651.103 2104.52 673.101C2104.52 689.307 2096.59 701.22 2079.72 706.513L2111.48 755.471H2084.85ZM2171.31 671.126C2170.16 667.972 2169.17 663.847 2168.84 661.689C2168.51 664.006 2167.51 668.145 2166.53 671.126L2154.29 706.686H2183.4L2171.31 671.126ZM2200.1 755.471L2189.84 725.208H2148.01L2137.59 755.471H2114.59L2157.76 636.214H2180.41L2223.43 755.471H2200.1Z" fill="#EA212D"/>
<path d="M1753.14 874.219C1740.95 874.219 1730.21 869.621 1725.24 858.887L1736.9 854.695C1740.04 860.597 1745.53 863.214 1753.14 863.214C1762.57 863.214 1768.85 859.93 1768.85 852.209C1768.85 847.373 1766.23 844.345 1760.99 843.437L1743.83 840.431C1733.1 838.585 1726.67 832.164 1726.67 820.518C1726.67 807.668 1736.9 799.944 1754.18 799.944C1767.02 799.944 1776.05 804.399 1780.77 812.913L1770.17 818.303C1767.15 813.827 1762.57 811.067 1754.31 811.067C1745.41 811.067 1740.17 813.956 1740.17 820.518C1740.17 824.317 1741.62 827.327 1747.12 828.245L1763.6 830.979C1773.96 832.691 1782.61 838.46 1782.61 851.033C1782.61 867.93 1768.72 874.219 1753.14 874.219ZM1819.51 811.067C1806.4 811.067 1801.03 817.506 1801.03 837.013C1801.03 856.527 1806.4 863.089 1819.51 863.089C1832.6 863.089 1837.84 856.527 1837.84 837.013C1837.84 817.506 1832.6 811.067 1819.51 811.067ZM1819.51 874.219C1795.79 874.219 1787.29 860.071 1787.29 837.013C1787.29 813.956 1795.79 799.944 1819.51 799.944C1843.21 799.944 1851.86 813.956 1851.86 837.013C1851.86 860.071 1843.21 874.219 1819.51 874.219ZM1896.31 781.815C1894.14 781.469 1892.18 781.339 1889.89 781.339C1882.68 781.339 1877.7 784.637 1877.7 795.238V801.906H1895.57L1892.96 813.307H1877.7V872.257H1863.96V818.148C1863.96 816.711 1864.61 815.141 1865.28 813.307H1853.17V801.906H1863.96V795.238C1863.96 775.33 1876.28 770.21 1890.04 770.21C1893.07 770.21 1896.06 770.629 1899.01 771.176L1896.31 781.815ZM1932.82 874.219C1921.54 874.219 1910.94 869.761 1910.94 854.301V817.765C1910.94 816.448 1911.21 815.141 1912.24 813.307H1899.42V801.906H1910.94V778.07L1924.7 774.013V801.906H1948.58L1944.91 813.307H1924.7V854.301C1924.7 860.47 1928.87 862.825 1933.74 862.825C1937.8 862.825 1941.2 861.377 1945.25 858.633L1953.26 866.628C1947.87 871.598 1940.14 874.219 1932.82 874.219ZM2029.05 872.257H2016.6L2003.24 831.634C2002.32 829.023 2001.55 826.798 2001.28 823C2001.02 826.798 2000.1 829.023 1999.18 831.634L1985.82 872.257H1973.38L1950.85 801.906H1964.36L1977.57 843.302C1978.1 844.884 1978.89 848.682 1979.53 855.881C1980.46 848.682 1980.98 846.322 1981.9 843.565L1995.25 801.906H2007.18L2020.54 843.565C2021.46 846.322 2021.98 848.682 2022.9 855.881C2023.56 848.682 2024.33 844.884 2024.86 843.302L2038.09 801.906H2051.59L2029.05 872.257ZM2097.97 840.431C2092.87 839.629 2087.23 838.726 2081.6 838.726C2072.57 838.726 2065.89 841.734 2065.89 850.503C2065.89 860.071 2070.99 862.825 2076.89 862.825C2085.4 862.825 2090.9 860.718 2097.97 856.142V840.431ZM2100.47 872.257L2099.02 867.142C2091.95 871.863 2085.14 874.219 2076.89 874.219C2059.6 874.219 2051.99 864.395 2051.99 850.503C2051.99 832.306 2065.49 827.98 2078.86 827.98C2085.14 827.98 2092.21 828.893 2097.97 830.212V821.168C2097.97 814.481 2094.44 811.067 2085.01 811.067C2077.14 811.067 2070.6 812.913 2066.02 819.591L2055.67 813.563C2061.69 803.223 2073.09 799.944 2085.27 799.944C2107.79 799.944 2111.73 811.067 2111.73 821.299V872.257H2100.47ZM2150.49 811.732C2146.42 811.732 2142.36 812.53 2139.35 815.01L2134.77 818.808V872.257H2121V801.906H2132.26L2133.98 808.579L2138.82 804.53C2143.01 800.998 2147.59 799.944 2152.7 799.944C2154.93 799.944 2157.03 800.207 2159.25 800.483V812.53C2156.51 812.126 2153.5 811.732 2150.49 811.732ZM2193.39 811.348C2180.83 811.348 2175.06 815.798 2174.14 830.212H2210.16C2209.89 819.333 2205.18 811.348 2193.39 811.348ZM2174.02 841.325C2174.27 856.142 2179.11 862.825 2193.39 862.825C2202.57 862.825 2208.47 859.93 2212.25 852.593L2223.91 857.065C2218.14 868.843 2209.11 874.219 2193.39 874.219C2170.48 874.219 2160.26 862.559 2160.26 837.013C2160.26 813.956 2168.12 799.944 2193.39 799.944C2220.51 799.944 2224.69 821.563 2224.69 837.013V841.325H2174.02Z" fill="#918F90"/>
<path d="M1501.52 576.862C1555.6 576.862 1566.6 652.328 1566.6 720.853C1566.6 784.33 1560.48 869.309 1502.18 869.309C1443.88 869.309 1436.34 783.498 1436.34 720.026C1436.34 651.506 1447.43 576.862 1501.52 576.862ZM1597.95 573.338C1571.4 554.988 1538.56 544.86 1501.52 544.86C1467.65 544.86 1437.28 553.327 1412.04 568.801C1363.4 598.299 1333.46 653.517 1333.46 724.271C1333.46 819.975 1400.65 907.14 1501.46 907.14C1602.3 907.14 1669.48 819.975 1669.48 724.271C1669.48 656.997 1642.42 603.77 1597.95 573.338ZM2232.91 638.906V653.544H2229.67V638.906H2224.69V636.214H2237.86V638.906H2232.91ZM2253.39 653.544L2252.62 643.258C2252.6 642.896 2252.57 642.441 2252.67 642.079L2249.28 649.771H2246.59L2243.2 642.104C2243.25 642.512 2243.27 642.992 2243.25 643.329L2242.48 653.544H2239.33L2240.63 636.214H2243.42L2247.69 645.372C2247.84 645.685 2247.91 645.973 2247.96 646.189C2248.01 645.902 2248.05 645.614 2248.17 645.348L2252.45 636.214H2255.24L2256.54 653.544H2253.39Z" fill="#EA212D"/>
</g>
<path d="M3229.48 638.253C3218.25 611.229 3195.46 582.05 3177.62 572.826C3190.35 597.47 3199.18 623.937 3203.8 651.285L3203.85 651.719C3174.62 578.855 3125.06 549.477 3084.58 485.503C3082.54 482.269 3080.49 479.027 3078.49 475.606C3077.35 473.652 3076.44 471.891 3075.65 470.271C3073.97 467.02 3072.67 463.584 3071.79 460.033C3071.79 459.869 3071.73 459.711 3071.63 459.588C3071.52 459.465 3071.37 459.386 3071.2 459.366C3071.05 459.322 3070.88 459.322 3070.72 459.366C3070.68 459.366 3070.63 459.426 3070.59 459.439C3070.55 459.453 3070.46 459.513 3070.4 459.539L3070.5 459.366C3005.58 497.382 2983.55 567.757 2981.52 602.959C2955.59 604.741 2930.8 614.296 2910.38 630.377C2908.25 628.572 2906.03 626.885 2903.72 625.321C2897.83 604.706 2897.57 582.887 2902.99 562.142C2879.14 573.693 2857.96 590.067 2840.77 610.228H2840.65C2830.41 597.243 2831.13 554.425 2831.71 545.482C2828.68 546.7 2825.79 548.235 2823.08 550.063C2814.04 556.518 2805.58 563.76 2797.82 571.706C2788.97 580.678 2780.89 590.376 2773.65 600.698C2757.04 624.258 2745.25 650.87 2738.97 679.01L2738.63 680.717C2738.14 682.992 2736.39 694.383 2736.09 696.857C2736.09 697.051 2736.05 697.231 2736.03 697.424C2733.76 709.185 2732.36 721.095 2731.83 733.059V734.393C2731.89 799.115 2756.22 861.461 2800.02 909.109C2843.82 956.758 2903.91 986.242 2968.39 991.734C3032.88 997.226 3097.09 978.328 3148.31 938.772C3199.54 899.217 3234.07 841.884 3245.07 778.104C3245.5 774.77 3245.86 771.468 3246.24 768.1C3251.57 724.097 3245.8 679.461 3229.48 638.253ZM2931.55 840.59C2932.76 841.17 2933.89 841.797 2935.13 842.351L2935.31 842.464C2934.06 841.864 2932.81 841.239 2931.55 840.59ZM3203.87 651.779V651.532L3203.91 651.805L3203.87 651.779Z" fill="url(#paint2_linear_2094_137)"/>
<path d="M3229.48 638.254C3218.25 611.229 3195.46 582.051 3177.62 572.827C3190.35 597.471 3199.18 623.938 3203.8 651.286V651.533L3203.85 651.806C3223.77 708.819 3220.89 771.327 3195.8 826.265C3166.18 889.831 3094.47 954.985 2982.22 951.817C2860.94 948.382 2754.13 858.385 2734.16 740.509C2730.52 721.922 2734.16 712.498 2735.99 697.392C2733.49 709.126 2732.1 721.067 2731.83 733.06V734.394C2731.89 799.115 2756.22 861.462 2800.02 909.11C2843.82 956.759 2903.91 986.242 2968.39 991.735C3032.88 997.227 3097.09 978.328 3148.31 938.773C3199.54 899.218 3234.07 841.885 3245.07 778.105C3245.5 774.77 3245.86 771.469 3246.24 768.101C3251.57 724.098 3245.8 679.461 3229.48 638.254Z" fill="url(#paint3_radial_2094_137)"/>
<path d="M3229.48 638.254C3218.25 611.229 3195.46 582.051 3177.62 572.827C3190.35 597.471 3199.18 623.938 3203.8 651.286V651.533L3203.85 651.806C3223.77 708.819 3220.89 771.327 3195.8 826.265C3166.18 889.831 3094.47 954.985 2982.22 951.817C2860.94 948.382 2754.13 858.385 2734.16 740.509C2730.52 721.922 2734.16 712.498 2735.99 697.392C2733.49 709.126 2732.1 721.067 2731.83 733.06V734.394C2731.89 799.115 2756.22 861.462 2800.02 909.11C2843.82 956.759 2903.91 986.242 2968.39 991.735C3032.88 997.227 3097.09 978.328 3148.31 938.773C3199.54 899.218 3234.07 841.885 3245.07 778.105C3245.5 774.77 3245.86 771.469 3246.24 768.101C3251.57 724.098 3245.8 679.461 3229.48 638.254Z" fill="url(#paint4_radial_2094_137)"/>
<path d="M3103.87 668.64C3104.43 669.033 3104.95 669.427 3105.47 669.82C3098.98 658.307 3090.9 647.765 3081.46 638.507C3001.12 558.154 3060.41 464.282 3070.4 459.513L3070.5 459.367C3005.58 497.382 2983.55 567.758 2981.52 602.959C2984.54 602.753 2987.52 602.499 2990.61 602.499C3013.64 602.541 3036.26 608.683 3056.15 620.301C3076.05 631.918 3092.51 648.596 3103.87 668.64Z" fill="url(#paint5_radial_2094_137)"/>
<path d="M2990.77 684.686C2990.34 691.116 2967.63 713.291 2959.69 713.291C2886.18 713.291 2874.25 757.756 2874.25 757.756C2877.5 795.199 2903.6 826.038 2935.14 842.351C2936.58 843.098 2938.04 843.772 2939.5 844.432C2942.03 845.553 2944.56 846.589 2947.09 847.54C2957.91 851.371 2969.25 853.558 2980.72 854.029C3109.55 860.072 3134.51 699.966 3041.54 653.507C3063.47 650.653 3085.68 656.046 3103.86 668.64C3092.51 648.596 3076.04 631.918 3056.15 620.301C3036.26 608.683 3013.64 602.541 2990.6 602.499C2987.54 602.499 2984.54 602.752 2981.52 602.959C2955.59 604.742 2930.8 614.296 2910.38 630.377C2914.33 633.712 2918.78 638.167 2928.15 647.404C2945.69 664.685 2990.67 682.585 2990.77 684.686Z" fill="url(#paint6_radial_2094_137)"/>
<path d="M2990.77 684.686C2990.34 691.116 2967.63 713.291 2959.69 713.291C2886.18 713.291 2874.25 757.756 2874.25 757.756C2877.5 795.199 2903.6 826.038 2935.14 842.351C2936.58 843.098 2938.04 843.772 2939.5 844.432C2942.03 845.553 2944.56 846.589 2947.09 847.54C2957.91 851.371 2969.25 853.558 2980.72 854.029C3109.55 860.072 3134.51 699.966 3041.54 653.507C3063.47 650.653 3085.68 656.046 3103.86 668.64C3092.51 648.596 3076.04 631.918 3056.15 620.301C3036.26 608.683 3013.64 602.541 2990.6 602.499C2987.54 602.499 2984.54 602.752 2981.52 602.959C2955.59 604.742 2930.8 614.296 2910.38 630.377C2914.33 633.712 2918.78 638.167 2928.15 647.404C2945.69 664.685 2990.67 682.585 2990.77 684.686Z" fill="url(#paint7_radial_2094_137)"/>
<path d="M2898.33 621.78C2900.43 623.114 2902.15 624.275 2903.67 625.322C2897.78 604.706 2897.53 582.888 2902.94 562.142C2879.1 573.693 2857.91 590.067 2840.72 610.229C2841.98 610.195 2879.48 609.522 2898.33 621.78Z" fill="url(#paint8_radial_2094_137)"/>
<path d="M2734.19 740.509C2754.14 858.385 2860.97 948.382 2982.25 951.816C3094.5 954.991 3166.21 889.831 3195.84 826.265C3220.92 771.326 3223.8 708.819 3203.88 651.806V651.559C3203.88 651.366 3203.84 651.252 3203.88 651.312L3203.93 651.746C3213.1 711.617 3182.64 769.621 3135.04 808.844L3134.89 809.178C3042.13 884.722 2953.36 854.756 2935.4 842.525C2934.14 841.924 2932.89 841.3 2931.63 840.651C2877.55 814.8 2855.21 765.526 2860 723.269C2847.16 723.458 2834.54 719.921 2823.67 713.084C2812.81 706.248 2804.15 696.407 2798.77 684.753C2812.96 676.056 2829.15 671.139 2845.79 670.471C2862.42 669.803 2878.95 673.407 2893.8 680.938C2924.41 694.835 2959.24 696.204 2990.85 684.753C2990.75 682.652 2945.77 664.745 2928.23 647.471C2918.86 638.234 2914.41 633.785 2910.47 630.444C2908.33 628.639 2906.11 626.952 2903.8 625.388C2902.26 624.341 2900.53 623.208 2898.46 621.847C2879.61 609.589 2842.11 610.262 2840.87 610.296H2840.75C2830.51 597.31 2831.23 554.493 2831.81 545.549C2828.78 546.767 2825.89 548.303 2823.18 550.131C2814.14 556.585 2805.68 563.827 2797.92 571.773C2789.04 580.72 2780.92 590.396 2773.66 600.698C2757.04 624.258 2745.25 650.87 2738.97 679.011C2738.85 679.537 2729.66 719.687 2734.19 740.509Z" fill="url(#paint9_radial_2094_137)"/>
<path d="M3081.48 638.507C3090.91 647.776 3098.99 658.328 3105.49 669.854C3106.91 670.927 3108.23 671.994 3109.36 673.028C3167.96 727.051 3137.26 803.415 3134.97 808.851C3182.58 769.628 3213 711.624 3203.86 651.753C3174.62 578.856 3125.06 549.477 3084.58 485.504C3082.54 482.27 3080.49 479.028 3078.49 475.607C3077.35 473.653 3076.44 471.892 3075.65 470.271C3073.97 467.02 3072.67 463.585 3071.79 460.034C3071.79 459.87 3071.73 459.711 3071.63 459.588C3071.52 459.465 3071.37 459.386 3071.2 459.367C3071.05 459.323 3070.88 459.323 3070.72 459.367C3070.68 459.367 3070.63 459.427 3070.59 459.44C3070.55 459.453 3070.46 459.513 3070.4 459.54C3060.41 464.282 3001.12 558.154 3081.48 638.507Z" fill="url(#paint10_radial_2094_137)"/>
<path d="M3109.32 672.995C3108.19 671.961 3106.87 670.894 3105.45 669.82C3104.92 669.427 3104.4 669.033 3103.84 668.64C3085.66 656.046 3063.44 650.653 3041.51 653.507C3134.48 699.993 3109.54 860.072 2980.69 854.029C2969.22 853.558 2957.88 851.371 2947.06 847.54C2944.53 846.593 2942 845.557 2939.47 844.432C2938.01 843.765 2936.55 843.098 2935.11 842.351L2935.29 842.465C2953.26 854.73 3042 884.695 3134.78 809.118L3134.93 808.784C3137.25 803.382 3167.95 726.997 3109.32 672.995Z" fill="url(#paint11_radial_2094_137)"/>
<path d="M2874.25 757.756C2874.25 757.756 2886.18 713.291 2959.69 713.291C2967.63 713.291 2990.36 691.116 2990.77 684.686C2959.16 696.137 2924.33 694.768 2893.72 680.871C2878.87 673.34 2862.34 669.737 2845.71 670.404C2829.07 671.072 2812.88 675.989 2798.69 684.686C2804.07 696.34 2812.73 706.182 2823.59 713.018C2834.46 719.854 2847.08 723.392 2859.92 723.202C2855.13 765.466 2877.47 814.74 2931.55 840.584C2932.76 841.164 2933.89 841.791 2935.14 842.345C2903.57 826.038 2877.5 795.199 2874.25 757.756Z" fill="url(#paint12_radial_2094_137)"/>
<path d="M3229.48 638.253C3218.25 611.229 3195.46 582.05 3177.62 572.826C3190.35 597.47 3199.18 623.937 3203.8 651.285L3203.85 651.719C3174.62 578.855 3125.06 549.477 3084.58 485.503C3082.54 482.269 3080.49 479.027 3078.49 475.606C3077.35 473.652 3076.44 471.891 3075.65 470.271C3073.97 467.02 3072.67 463.584 3071.79 460.033C3071.79 459.869 3071.73 459.711 3071.63 459.588C3071.52 459.465 3071.37 459.386 3071.2 459.366C3071.05 459.322 3070.88 459.322 3070.72 459.366C3070.68 459.366 3070.63 459.426 3070.59 459.439C3070.55 459.453 3070.46 459.513 3070.4 459.539L3070.5 459.366C3005.58 497.382 2983.55 567.757 2981.52 602.959C2984.54 602.752 2987.52 602.498 2990.6 602.498C3013.64 602.541 3036.26 608.683 3056.15 620.3C3076.04 631.917 3092.51 648.596 3103.86 668.639C3085.68 656.045 3063.47 650.652 3041.54 653.506C3134.51 699.992 3109.57 860.071 2980.72 854.029C2969.25 853.558 2957.91 851.37 2947.09 847.54C2944.56 846.592 2942.03 845.556 2939.5 844.432C2938.04 843.765 2936.58 843.098 2935.13 842.351L2935.31 842.464C2934.06 841.864 2932.81 841.239 2931.55 840.59C2932.76 841.17 2933.89 841.797 2935.13 842.351C2903.57 826.037 2877.5 795.198 2874.25 757.756C2874.25 757.756 2886.18 713.291 2959.69 713.291C2967.63 713.291 2990.36 691.115 2990.77 684.686C2990.67 682.585 2945.69 664.677 2928.15 647.404C2918.77 638.166 2914.33 633.718 2910.38 630.377C2908.25 628.572 2906.03 626.885 2903.72 625.321C2897.83 604.706 2897.57 582.887 2902.99 562.142C2879.14 573.693 2857.96 590.067 2840.77 610.228H2840.65C2830.41 597.243 2831.13 554.425 2831.71 545.482C2828.68 546.7 2825.79 548.235 2823.08 550.063C2814.04 556.518 2805.58 563.76 2797.82 571.706C2788.97 580.678 2780.89 590.376 2773.65 600.698C2757.04 624.258 2745.25 650.87 2738.97 679.01L2738.63 680.717C2738.14 682.992 2735.96 694.543 2735.65 697.024C2735.65 697.211 2735.65 696.831 2735.65 697.024C2733.65 708.948 2732.38 720.982 2731.83 733.059V734.393C2731.89 799.115 2756.22 861.461 2800.02 909.109C2843.82 956.758 2903.91 986.242 2968.39 991.734C3032.88 997.226 3097.09 978.328 3148.31 938.772C3199.54 899.217 3234.07 841.884 3245.07 778.104C3245.5 774.77 3245.86 771.468 3246.24 768.1C3251.57 724.097 3245.8 679.461 3229.48 638.253Z" fill="url(#paint13_linear_2094_137)"/>
<path d="M5287.12 776C5287.12 788.833 5289.04 800.5 5292.96 811C5297.12 821.333 5302.54 830.583 5309.46 838.667C5316.37 846.75 5324.46 853.667 5333.96 859.5C5343.12 865.333 5353.12 870.167 5363.79 873.917C5374.37 877.75 5385.46 880.583 5396.71 882.417C5408.12 884.25 5419.21 885.167 5430.46 885.167C5444.62 885.167 5457.79 884.083 5470.29 881.833C5482.79 879.5 5494.96 876.417 5506.96 872.5C5518.96 868.583 5530.54 863.917 5542.12 858.583C5553.79 853.25 5565.62 847.417 5577.79 840.917V953.917C5564.21 960.583 5550.87 966.167 5537.54 971C5524.21 975.667 5510.87 979.75 5497.29 983C5483.71 986.333 5469.96 988.833 5455.87 990.333C5441.79 991.833 5427.37 992.667 5412.37 992.667C5392.37 992.667 5373.04 990.333 5354.46 985.75C5335.87 981.167 5318.46 974.583 5302.12 965.917C5285.79 957.25 5270.87 946.75 5257.29 934.417C5243.62 922.083 5232.04 908.167 5222.29 892.75C5212.54 877.333 5205.04 860.417 5199.62 842.25C5194.37 824.083 5191.71 804.75 5191.71 784.25C5191.71 762.333 5194.71 741.5 5200.71 721.583C5206.79 701.583 5215.37 683.417 5226.71 666.75C5237.96 650.083 5251.71 635.25 5267.96 622.333C5284.21 609.417 5302.46 598.833 5322.79 590.667C5311.71 601.75 5303.04 614.833 5296.96 630.083C5290.71 645.25 5286.79 660.5 5285.04 675.75H5474.87C5474.87 656.583 5472.96 639.917 5469.04 625.583C5465.12 611.25 5458.87 599.333 5450.12 589.917C5441.46 580.417 5430.29 573.25 5416.54 568.583C5402.79 563.833 5386.21 561.417 5366.79 561.417C5343.87 561.417 5320.96 564.75 5298.04 571.667C5275.12 578.333 5253.37 587.917 5232.71 600C5212.04 612.25 5193.04 626.667 5175.71 643.167C5158.37 659.833 5143.79 677.75 5131.96 697.167C5134.46 674.667 5139.46 653 5146.37 632.417C5153.29 611.833 5162.46 592.667 5173.46 574.917C5184.46 557.417 5197.37 541.417 5212.12 527.083C5226.87 512.75 5243.21 500.417 5261.29 490.417C5279.37 480.417 5298.54 472.333 5319.37 466.917C5340.21 462.167 5362.37 459.333 5385.71 459.333C5399.37 459.333 5412.96 460.583 5426.54 463C5440.12 465.5 5453.37 468.833 5466.29 473.167C5491.96 482 5514.87 494.333 5535.04 510C5555.21 525.833 5572.12 543.833 5585.87 564.417C5599.62 585 5610.04 607.75 5617.21 632.5C5624.37 657.25 5628.04 683 5628.04 709.75V776H5287.12Z" fill="#0078D7"/>
<mask id="mask1_2094_137" style="mask-type:luminance" maskUnits="userSpaceOnUse" x="6308" y="459" width="534" height="534">
<path d="M6575 992.667C6722.28 992.667 6841.67 873.276 6841.67 726C6841.67 578.724 6722.28 459.333 6575 459.333C6427.72 459.333 6308.33 578.724 6308.33 726C6308.33 873.276 6427.72 992.667 6575 992.667Z" fill="white"/>
</mask>
<g mask="url(#mask1_2094_137)">
<path d="M6350.67 459.333V786.606H6470.03L6575 604.788H6841.67V459.333H6350.67Z" fill="#DB4437"/>
<path d="M6350.67 459.333V786.606H6470.03L6575 604.788H6841.67V459.333H6350.67Z" fill="url(#paint14_linear_2094_137)"/>
</g>
<mask id="mask2_2094_137" style="mask-type:luminance" maskUnits="userSpaceOnUse" x="6308" y="459" width="534" height="534">
<path d="M6575 992.667C6722.28 992.667 6841.67 873.276 6841.67 726C6841.67 578.724 6722.28 459.333 6575 459.333C6427.72 459.333 6308.33 578.724 6308.33 726C6308.33 873.276 6427.72 992.667 6575 992.667Z" fill="white"/>
</mask>
<g mask="url(#mask2_2094_137)">
<path d="M6472.91 785.545L6352.21 578.545L6350.45 581.576L6470.27 787.03L6472.91 785.545Z" fill="#3E2723" fill-opacity="0.15"/>
</g>
<mask id="mask3_2094_137" style="mask-type:luminance" maskUnits="userSpaceOnUse" x="6308" y="459" width="534" height="534">
<path d="M6575 992.667C6722.28 992.667 6841.67 873.276 6841.67 726C6841.67 578.724 6722.28 459.333 6575 459.333C6427.72 459.333 6308.33 578.724 6308.33 726C6308.33 873.276 6427.72 992.667 6575 992.667Z" fill="white"/>
</mask>
<g mask="url(#mask3_2094_137)">
<path d="M6308.33 992.667H6562.18L6680 874.848V786.606H6470.03L6308.33 509.273V992.667Z" fill="#0F9D58"/>
<path d="M6308.33 992.667H6562.18L6680 874.848V786.606H6470.03L6308.33 509.273V992.667Z" fill="url(#paint15_linear_2094_137)"/>
</g>
<mask id="mask4_2094_137" style="mask-type:luminance" maskUnits="userSpaceOnUse" x="6308" y="459" width="534" height="534">
<path d="M6575 992.667C6722.28 992.667 6841.67 873.276 6841.67 726C6841.67 578.724 6722.28 459.333 6575 459.333C6427.72 459.333 6308.33 578.724 6308.33 726C6308.33 873.276 6427.72 992.667 6575 992.667Z" fill="white"/>
</mask>
<g mask="url(#mask4_2094_137)">
<path d="M6677.55 790.636L6675.03 789.182L6558.7 992.666H6562.18L6677.64 790.727L6677.55 790.636Z" fill="#263238" fill-opacity="0.15"/>
</g>
<mask id="mask5_2094_137" style="mask-type:luminance" maskUnits="userSpaceOnUse" x="6308" y="459" width="534" height="534">
<path d="M6575 992.667C6722.28 992.667 6841.67 873.276 6841.67 726C6841.67 578.724 6722.28 459.333 6575 459.333C6427.72 459.333 6308.33 578.724 6308.33 726C6308.33 873.276 6427.72 992.667 6575 992.667Z" fill="white"/>
</mask>
<g mask="url(#mask5_2094_137)">
<mask id="mask6_2094_137" style="mask-type:luminance" maskUnits="userSpaceOnUse" x="6308" y="509" width="372" height="484">
<path d="M6308.33 992.667H6562.18L6680 874.848V786.606H6470.03L6308.33 509.273V992.667Z" fill="white"/>
</mask>
<g mask="url(#mask6_2094_137)">
<path d="M6575 604.788L6680 786.606L6562.18 992.667H6841.67V604.788H6575Z" fill="#FFCD40"/>
<path d="M6575 604.788L6680 786.606L6562.18 992.667H6841.67V604.788H6575Z" fill="url(#paint16_linear_2094_137)"/>
</g>
</g>
<mask id="mask7_2094_137" style="mask-type:luminance" maskUnits="userSpaceOnUse" x="6308" y="459" width="534" height="534">
<path d="M6575 992.667C6722.28 992.667 6841.67 873.276 6841.67 726C6841.67 578.724 6722.28 459.333 6575 459.333C6427.72 459.333 6308.33 578.724 6308.33 726C6308.33 873.276 6427.72 992.667 6575 992.667Z" fill="white"/>
</mask>
<g mask="url(#mask7_2094_137)">
<path d="M6575 604.788L6680 786.606L6562.18 992.667H6841.67V604.788H6575Z" fill="#FFCD40"/>
<path d="M6575 604.788L6680 786.606L6562.18 992.667H6841.67V604.788H6575Z" fill="url(#paint17_linear_2094_137)"/>
</g>
<mask id="mask8_2094_137" style="mask-type:luminance" maskUnits="userSpaceOnUse" x="6308" y="459" width="534" height="534">
<path d="M6575 992.667C6722.28 992.667 6841.67 873.276 6841.67 726C6841.67 578.724 6722.28 459.333 6575 459.333C6427.72 459.333 6308.33 578.724 6308.33 726C6308.33 873.276 6427.72 992.667 6575 992.667Z" fill="white"/>
</mask>
<g mask="url(#mask8_2094_137)">
<mask id="mask9_2094_137" style="mask-type:luminance" maskUnits="userSpaceOnUse" x="6562" y="604" width="280" height="389">
<path d="M6575 604.788L6680 786.606L6562.18 992.667H6841.67V604.788H6575Z" fill="white"/>
</mask>
<g mask="url(#mask9_2094_137)">
<path d="M6350.67 459.333V786.606H6470.03L6575 604.788H6841.67V459.333H6350.67Z" fill="#DB4437"/>
<path d="M6350.67 459.333V786.606H6470.03L6575 604.788H6841.67V459.333H6350.67Z" fill="url(#paint18_linear_2094_137)"/>
</g>
</g>
<mask id="mask10_2094_137" style="mask-type:luminance" maskUnits="userSpaceOnUse" x="6308" y="459" width="534" height="534">
<path d="M6575 992.667C6722.28 992.667 6841.67 873.276 6841.67 726C6841.67 578.724 6722.28 459.333 6575 459.333C6427.72 459.333 6308.33 578.724 6308.33 726C6308.33 873.276 6427.72 992.667 6575 992.667Z" fill="white"/>
</mask>
<g mask="url(#mask10_2094_137)">
<path d="M6575 604.788V668.273L6812.58 604.788H6575Z" fill="url(#paint19_radial_2094_137)"/>
</g>
<mask id="mask11_2094_137" style="mask-type:luminance" maskUnits="userSpaceOnUse" x="6308" y="459" width="534" height="534">
<path d="M6575 992.667C6722.28 992.667 6841.67 873.276 6841.67 726C6841.67 578.724 6722.28 459.333 6575 459.333C6427.72 459.333 6308.33 578.724 6308.33 726C6308.33 873.276 6427.72 992.667 6575 992.667Z" fill="white"/>
</mask>
<g mask="url(#mask11_2094_137)">
<mask id="mask12_2094_137" style="mask-type:luminance" maskUnits="userSpaceOnUse" x="6350" y="459" width="492" height="328">
<path d="M6350.67 459.333V581.576L6470.03 786.606L6575 604.788H6841.67V459.333H6350.67Z" fill="white"/>
</mask>
<g mask="url(#mask12_2094_137)">
<path d="M6308.33 992.667H6562.18L6680 874.848V786.606H6470.03L6308.33 509.273V992.667Z" fill="#0F9D58"/>
<path d="M6308.33 992.667H6562.18L6680 874.848V786.606H6470.03L6308.33 509.273V992.667Z" fill="url(#paint20_linear_2094_137)"/>
</g>
</g>
<mask id="mask13_2094_137" style="mask-type:luminance" maskUnits="userSpaceOnUse" x="6308" y="459" width="534" height="534">
<path d="M6575 992.667C6722.28 992.667 6841.67 873.276 6841.67 726C6841.67 578.724 6722.28 459.333 6575 459.333C6427.72 459.333 6308.33 578.724 6308.33 726C6308.33 873.276 6427.72 992.667 6575 992.667Z" fill="white"/>
</mask>
<g mask="url(#mask13_2094_137)">
<path d="M6350.67 581.909L6524.15 755.363L6470.03 786.606L6350.67 581.909Z" fill="url(#paint21_radial_2094_137)"/>
</g>
<mask id="mask14_2094_137" style="mask-type:luminance" maskUnits="userSpaceOnUse" x="6308" y="459" width="534" height="534">
<path d="M6575 992.667C6722.28 992.667 6841.67 873.276 6841.67 726C6841.67 578.724 6722.28 459.333 6575 459.333C6427.72 459.333 6308.33 578.724 6308.33 726C6308.33 873.276 6427.72 992.667 6575 992.667Z" fill="white"/>
</mask>
<g mask="url(#mask14_2094_137)">
<path d="M6562.36 992.333L6625.88 755.364L6680 786.606L6562.36 992.333Z" fill="url(#paint22_radial_2094_137)"/>
</g>
<mask id="mask15_2094_137" style="mask-type:luminance" maskUnits="userSpaceOnUse" x="6308" y="459" width="534" height="534">
<path d="M6575 992.667C6722.28 992.667 6841.67 873.276 6841.67 726C6841.67 578.724 6722.28 459.333 6575 459.333C6427.72 459.333 6308.33 578.724 6308.33 726C6308.33 873.276 6427.72 992.667 6575 992.667Z" fill="white"/>
</mask>
<g mask="url(#mask15_2094_137)">
<path d="M6575 847.212C6641.94 847.212 6696.21 792.944 6696.21 726C6696.21 659.056 6641.94 604.788 6575 604.788C6508.06 604.788 6453.79 659.056 6453.79 726C6453.79 792.944 6508.06 847.212 6575 847.212Z" fill="#F1F1F1"/>
<path d="M6575 822.97C6628.55 822.97 6671.97 779.555 6671.97 726C6671.97 672.445 6628.55 629.03 6575 629.03C6521.44 629.03 6478.03 672.445 6478.03 726C6478.03 779.555 6521.44 822.97 6575 822.97Z" fill="#4285F4"/>
</g>
<mask id="mask16_2094_137" style="mask-type:luminance" maskUnits="userSpaceOnUse" x="6308" y="459" width="534" height="534">
<path d="M6575 992.667C6722.28 992.667 6841.67 873.276 6841.67 726C6841.67 578.724 6722.28 459.333 6575 459.333C6427.72 459.333 6308.33 578.724 6308.33 726C6308.33 873.276 6427.72 992.667 6575 992.667Z" fill="white"/>
</mask>
<g mask="url(#mask16_2094_137)">
<path d="M6575 601.758C6508.06 601.758 6453.79 656.03 6453.79 722.97V726C6453.79 659.061 6508.06 604.788 6575 604.788H6841.67V601.758H6575Z" fill="#3E2723" fill-opacity="0.2"/>
<path d="M6679.85 786.606C6658.88 822.788 6619.82 847.212 6575 847.212C6530.15 847.212 6491.09 822.788 6470.12 786.606H6470L6308.33 509.273V512.303L6470.03 789.636H6470.15C6491.12 825.818 6530.18 850.242 6575.03 850.242C6619.85 850.242 6658.91 825.848 6679.88 789.636H6680.03V786.606H6679.85Z" fill="white" fill-opacity="0.1"/>
<path opacity="0.1" d="M6578.03 604.788C6577.52 604.788 6577.03 604.848 6576.52 604.879C6642.76 605.697 6696.21 659.576 6696.21 726C6696.21 792.424 6642.76 846.303 6576.52 847.121C6577.03 847.121 6577.52 847.212 6578.03 847.212C6644.97 847.212 6699.24 792.939 6699.24 726C6699.24 659.061 6644.97 604.788 6578.03 604.788Z" fill="#3E2723"/>
<path d="M6681.06 790.636C6691.36 772.818 6697.33 752.212 6697.33 730.152C6697.33 717.364 6695.33 705.061 6691.67 693.515C6694.55 703.879 6696.21 714.758 6696.21 726.03C6696.21 748.091 6690.24 768.697 6679.94 786.515L6680 786.636L6562.18 992.697H6565.7L6681.12 790.758L6681.06 790.636Z" fill="white" fill-opacity="0.2"/>
</g>
<mask id="mask17_2094_137" style="mask-type:luminance" maskUnits="userSpaceOnUse" x="6308" y="459" width="534" height="534">
<path d="M6575 992.667C6722.28 992.667 6841.67 873.276 6841.67 726C6841.67 578.724 6722.28 459.333 6575 459.333C6427.72 459.333 6308.33 578.724 6308.33 726C6308.33 873.276 6427.72 992.667 6575 992.667Z" fill="white"/>
</mask>
<g mask="url(#mask17_2094_137)">
<path d="M6575 462.364C6721.76 462.364 6840.82 580.939 6841.64 727.515C6841.64 727 6841.67 726.515 6841.67 726C6841.67 578.727 6722.27 459.333 6575 459.333C6427.73 459.333 6308.33 578.727 6308.33 726C6308.33 726.515 6308.36 727 6308.36 727.515C6309.18 580.939 6428.24 462.364 6575 462.364Z" fill="white" fill-opacity="0.2"/>
<path d="M6575 989.636C6721.76 989.636 6840.82 871.061 6841.64 724.485C6841.64 725 6841.67 725.485 6841.67 726C6841.67 873.273 6722.27 992.667 6575 992.667C6427.73 992.667 6308.33 873.273 6308.33 726C6308.33 725.485 6308.36 725 6308.36 724.485C6309.18 871.061 6428.24 989.636 6575 989.636Z" fill="#3E2723" fill-opacity="0.15"/>
</g>
<path d="M6575 992.667C6722.28 992.667 6841.67 873.276 6841.67 726C6841.67 578.724 6722.28 459.333 6575 459.333C6427.72 459.333 6308.33 578.724 6308.33 726C6308.33 873.276 6427.72 992.667 6575 992.667Z" fill="url(#paint23_radial_2094_137)"/>
<g opacity="0.53" filter="url(#filter0_f_2094_137)">
<path d="M4429.66 734.478C4429.66 796.958 4403.89 856.88 4358.01 901.061C4312.13 945.241 4249.9 970.062 4185.01 970.062C4120.13 970.062 4057.9 945.241 4012.02 901.061C3966.14 856.88 3940.36 796.958 3940.36 734.478C3940.36 671.997 3966.14 612.075 4012.02 567.894C4057.9 523.714 4120.13 498.893 4185.01 498.893C4249.9 498.893 4312.13 523.714 4358.01 567.894C4403.89 612.075 4429.66 671.997 4429.66 734.478Z" fill="black"/>
</g>
<path d="M4438.97 713.675C4438.97 781.031 4412.21 845.628 4364.58 893.256C4316.95 940.883 4252.36 967.64 4185 967.64C4117.64 967.64 4053.05 940.883 4005.42 893.255C3957.79 845.628 3931.04 781.031 3931.04 713.675C3931.04 646.32 3957.79 581.723 4005.42 534.095C4053.05 486.468 4117.64 459.711 4185 459.71C4252.36 459.71 4316.95 486.467 4364.58 534.095C4412.21 581.723 4438.97 646.32 4438.97 713.675Z" fill="url(#paint24_linear_2094_137)" stroke="#CDCDCD" stroke-width="0.753985" stroke-linecap="round" stroke-linejoin="round"/>
<path d="M4419.06 713.675C4419.06 775.753 4394.4 835.288 4350.51 879.184C4306.61 923.079 4247.08 947.74 4185 947.74C4122.92 947.739 4063.39 923.079 4019.49 879.184C3975.6 835.288 3950.94 775.753 3950.94 713.675C3950.94 651.598 3975.6 592.062 4019.49 548.167C4063.39 504.271 4122.92 479.611 4185 479.611C4247.08 479.611 4306.61 504.271 4350.51 548.167C4394.4 592.062 4419.06 651.597 4419.06 713.675Z" fill="url(#paint25_radial_2094_137)"/>
<path d="M4185 491.817C4184.55 491.816 4184.11 491.904 4183.69 492.075C4183.28 492.246 4182.9 492.497 4182.58 492.814C4182.27 493.132 4182.02 493.508 4181.84 493.923C4181.67 494.337 4181.59 494.782 4181.59 495.23V534.592C4181.59 535.041 4181.67 535.485 4181.84 535.9C4182.02 536.314 4182.27 536.691 4182.58 537.008C4182.9 537.325 4183.28 537.577 4183.69 537.748C4184.11 537.919 4184.55 538.007 4185 538.006C4185.45 538.006 4185.89 537.919 4186.31 537.748C4186.72 537.576 4187.1 537.325 4187.42 537.008C4187.73 536.691 4187.98 536.314 4188.15 535.899C4188.33 535.485 4188.41 535.041 4188.41 534.592V495.23C4188.41 494.781 4188.33 494.337 4188.15 493.923C4187.98 493.508 4187.73 493.132 4187.41 492.814C4187.1 492.497 4186.72 492.246 4186.31 492.075C4185.89 491.904 4185.45 491.816 4185 491.817ZM4162.68 493.228C4162.44 493.203 4162.21 493.204 4161.98 493.231C4161.53 493.277 4161.1 493.41 4160.71 493.623C4160.31 493.836 4159.96 494.125 4159.68 494.473C4159.4 494.822 4159.19 495.222 4159.06 495.652C4158.93 496.082 4158.89 496.533 4158.94 496.979L4160.66 513.447C4160.71 513.893 4160.84 514.326 4161.05 514.72C4161.27 515.115 4161.56 515.463 4161.9 515.746C4162.25 516.028 4162.65 516.239 4163.08 516.366C4163.51 516.493 4163.96 516.535 4164.41 516.487C4164.86 516.442 4165.29 516.308 4165.68 516.095C4166.08 515.882 4166.43 515.593 4166.71 515.244C4166.99 514.896 4167.2 514.495 4167.33 514.065C4167.46 513.635 4167.5 513.184 4167.45 512.738L4165.73 496.271C4165.65 495.489 4165.3 494.759 4164.75 494.204C4164.19 493.649 4163.46 493.304 4162.68 493.228ZM4207.48 493.244C4206.7 493.32 4205.97 493.665 4205.41 494.219C4204.85 494.774 4204.5 495.504 4204.42 496.286L4202.69 512.752C4202.64 513.198 4202.68 513.649 4202.81 514.079C4202.94 514.509 4203.15 514.91 4203.43 515.259C4203.71 515.607 4204.06 515.897 4204.46 516.11C4204.85 516.324 4205.28 516.457 4205.73 516.503C4206.18 516.551 4206.63 516.51 4207.06 516.384C4207.49 516.257 4207.89 516.046 4208.24 515.764C4208.58 515.482 4208.87 515.133 4209.09 514.739C4209.3 514.345 4209.43 513.912 4209.48 513.466L4211.21 496.999C4211.26 496.553 4211.22 496.102 4211.09 495.672C4210.96 495.242 4210.75 494.841 4210.47 494.492C4210.19 494.144 4209.84 493.855 4209.45 493.641C4209.05 493.428 4208.62 493.295 4208.17 493.249C4207.94 493.225 4207.71 493.223 4207.48 493.244ZM4139.74 496.553C4139.23 496.555 4138.73 496.669 4138.28 496.889C4137.82 497.108 4137.42 497.427 4137.1 497.821C4136.78 498.216 4136.56 498.677 4136.44 499.17C4136.32 499.663 4136.31 500.176 4136.42 500.672L4144.57 539.181C4144.66 539.62 4144.84 540.037 4145.1 540.407C4145.35 540.777 4145.67 541.093 4146.05 541.338C4146.42 541.582 4146.84 541.75 4147.29 541.831C4147.73 541.913 4148.18 541.907 4148.62 541.813C4149.06 541.721 4149.47 541.543 4149.84 541.29C4150.21 541.037 4150.53 540.713 4150.77 540.338C4151.02 539.962 4151.19 539.542 4151.27 539.101C4151.35 538.66 4151.34 538.207 4151.25 537.769L4143.1 499.259C4142.94 498.489 4142.52 497.799 4141.9 497.306C4141.29 496.812 4140.53 496.548 4139.74 496.553ZM4230.41 496.586C4229.63 496.579 4228.86 496.845 4228.25 497.338C4227.64 497.831 4227.22 498.521 4227.05 499.291L4218.87 537.794C4218.78 538.232 4218.77 538.685 4218.86 539.126C4218.94 539.567 4219.1 539.988 4219.35 540.364C4219.59 540.74 4219.91 541.064 4220.28 541.318C4220.65 541.571 4221.06 541.749 4221.5 541.841C4221.94 541.935 4222.39 541.942 4222.84 541.861C4223.28 541.78 4223.7 541.612 4224.07 541.368C4224.45 541.124 4224.77 540.807 4225.03 540.438C4225.28 540.068 4225.46 539.652 4225.55 539.213L4233.73 500.708C4233.84 500.213 4233.83 499.7 4233.72 499.206C4233.6 498.713 4233.37 498.252 4233.05 497.858C4232.74 497.463 4232.33 497.144 4231.88 496.924C4231.42 496.705 4230.92 496.588 4230.41 496.586ZM4117.86 502.725C4117.4 502.684 4116.94 502.737 4116.51 502.882C4116.08 503.02 4115.69 503.24 4115.34 503.531C4115 503.822 4114.72 504.177 4114.52 504.577C4114.32 504.976 4114.19 505.412 4114.16 505.859C4114.12 506.306 4114.18 506.755 4114.32 507.181L4119.43 522.929C4119.57 523.356 4119.79 523.751 4120.08 524.093C4120.37 524.434 4120.73 524.715 4121.13 524.918C4121.53 525.122 4121.96 525.245 4122.41 525.279C4122.86 525.314 4123.31 525.26 4123.73 525.121C4124.16 524.983 4124.56 524.762 4124.9 524.471C4125.24 524.18 4125.52 523.825 4125.72 523.425C4125.93 523.026 4126.05 522.59 4126.08 522.143C4126.12 521.695 4126.06 521.246 4125.92 520.82L4120.81 505.073C4120.6 504.434 4120.21 503.87 4119.69 503.453C4119.16 503.035 4118.52 502.782 4117.86 502.725ZM4252.18 502.733C4251.51 502.79 4250.87 503.043 4250.34 503.461C4249.82 503.879 4249.43 504.442 4249.22 505.081L4244.1 520.827C4243.96 521.253 4243.91 521.703 4243.94 522.15C4243.98 522.597 4244.1 523.033 4244.31 523.432C4244.51 523.832 4244.79 524.187 4245.13 524.478C4245.47 524.769 4245.87 524.989 4246.29 525.127C4246.72 525.267 4247.17 525.321 4247.62 525.286C4248.06 525.251 4248.5 525.129 4248.9 524.925C4249.3 524.722 4249.65 524.442 4249.95 524.1C4250.24 523.759 4250.46 523.364 4250.59 522.937L4255.71 507.19C4255.85 506.763 4255.91 506.314 4255.87 505.867C4255.84 505.42 4255.72 504.984 4255.51 504.585C4255.31 504.185 4255.03 503.83 4254.69 503.539C4254.35 503.248 4253.95 503.027 4253.52 502.889C4253.09 502.748 4252.63 502.695 4252.18 502.733ZM4096.21 510.646C4095.75 510.655 4095.3 510.756 4094.89 510.942C4094.48 511.124 4094.11 511.384 4093.8 511.709C4093.49 512.034 4093.25 512.416 4093.09 512.835C4092.93 513.253 4092.85 513.699 4092.86 514.147C4092.87 514.595 4092.97 515.037 4093.16 515.446L4109.14 551.416C4109.32 551.826 4109.59 552.196 4109.91 552.506C4110.23 552.815 4110.62 553.057 4111.04 553.218C4111.45 553.378 4111.9 553.455 4112.35 553.443C4112.8 553.431 4113.24 553.331 4113.65 553.148C4114.06 552.967 4114.43 552.706 4114.74 552.382C4115.05 552.057 4115.29 551.674 4115.45 551.256C4115.61 550.838 4115.69 550.391 4115.68 549.943C4115.66 549.495 4115.56 549.053 4115.38 548.644L4099.39 512.675C4099.12 512.061 4098.67 511.54 4098.11 511.179C4097.54 510.818 4096.88 510.633 4096.21 510.646ZM4274.06 510.766C4273.39 510.753 4272.73 510.938 4272.17 511.298C4271.6 511.659 4271.15 512.178 4270.88 512.791L4254.84 548.739C4254.66 549.148 4254.56 549.589 4254.55 550.038C4254.53 550.486 4254.61 550.932 4254.77 551.351C4254.93 551.769 4255.17 552.152 4255.48 552.477C4255.79 552.802 4256.16 553.063 4256.57 553.245C4256.98 553.428 4257.42 553.529 4257.87 553.542C4258.32 553.554 4258.76 553.478 4259.18 553.318C4259.6 553.157 4259.98 552.916 4260.31 552.607C4260.63 552.298 4260.89 551.928 4261.08 551.518L4277.11 515.572C4277.3 515.163 4277.4 514.721 4277.41 514.273C4277.42 513.825 4277.35 513.378 4277.19 512.959C4277.03 512.541 4276.78 512.158 4276.48 511.833C4276.17 511.508 4275.8 511.247 4275.39 511.065C4274.97 510.878 4274.52 510.776 4274.06 510.766ZM4076.12 521.274C4075.44 521.226 4074.77 521.383 4074.18 521.727C4073.79 521.95 4073.45 522.248 4073.18 522.604C4072.9 522.959 4072.7 523.365 4072.59 523.798C4072.47 524.231 4072.44 524.683 4072.5 525.128C4072.56 525.572 4072.7 526.001 4072.93 526.389L4081.21 540.728C4081.43 541.117 4081.73 541.458 4082.09 541.731C4082.44 542.004 4082.85 542.205 4083.28 542.321C4083.71 542.437 4084.16 542.466 4084.61 542.407C4085.05 542.348 4085.48 542.202 4085.87 541.977C4086.26 541.753 4086.6 541.455 4086.87 541.1C4087.15 540.744 4087.35 540.338 4087.46 539.905C4087.58 539.472 4087.61 539.02 4087.55 538.576C4087.49 538.131 4087.34 537.703 4087.12 537.315L4078.84 522.976C4078.56 522.491 4078.17 522.082 4077.69 521.785C4077.22 521.489 4076.68 521.313 4076.12 521.274ZM4293.88 521.274C4293.32 521.312 4292.78 521.488 4292.31 521.784C4291.83 522.081 4291.44 522.49 4291.16 522.975L4282.88 537.315C4282.66 537.703 4282.51 538.131 4282.45 538.576C4282.39 539.02 4282.42 539.472 4282.54 539.905C4282.65 540.339 4282.85 540.745 4283.13 541.1C4283.4 541.455 4283.74 541.753 4284.13 541.977C4284.52 542.202 4284.95 542.348 4285.39 542.407C4285.84 542.466 4286.29 542.437 4286.72 542.321C4287.15 542.205 4287.56 542.004 4287.92 541.731C4288.27 541.458 4288.57 541.117 4288.79 540.728L4297.07 526.388C4297.3 526 4297.44 525.571 4297.5 525.127C4297.56 524.682 4297.53 524.231 4297.42 523.798C4297.3 523.364 4297.1 522.958 4296.83 522.603C4296.55 522.247 4296.21 521.949 4295.82 521.726C4295.23 521.385 4294.56 521.227 4293.88 521.274ZM4056.61 533.441C4055.93 533.466 4055.28 533.692 4054.73 534.092C4054.36 534.355 4054.06 534.687 4053.82 535.068C4053.59 535.45 4053.43 535.875 4053.36 536.318C4053.29 536.761 4053.31 537.213 4053.41 537.649C4053.51 538.085 4053.7 538.496 4053.97 538.859L4077.08 570.72C4077.35 571.084 4077.68 571.392 4078.06 571.627C4078.44 571.862 4078.87 572.019 4079.31 572.089C4079.75 572.16 4080.2 572.142 4080.64 572.037C4081.08 571.932 4081.49 571.743 4081.85 571.479C4082.21 571.216 4082.52 570.884 4082.76 570.502C4082.99 570.12 4083.15 569.696 4083.22 569.253C4083.29 568.81 4083.27 568.358 4083.17 567.922C4083.06 567.486 4082.87 567.075 4082.61 566.713L4059.49 534.851C4059.17 534.398 4058.73 534.032 4058.23 533.786C4057.73 533.541 4057.17 533.422 4056.61 533.441ZM4313.63 533.615C4313.07 533.594 4312.52 533.712 4312.01 533.957C4311.51 534.202 4311.08 534.567 4310.75 535.02L4287.59 566.851C4287.33 567.213 4287.14 567.624 4287.03 568.059C4286.93 568.495 4286.91 568.948 4286.98 569.391C4287.05 569.834 4287.2 570.258 4287.44 570.641C4287.67 571.023 4287.98 571.355 4288.34 571.618C4288.71 571.883 4289.12 572.073 4289.55 572.178C4289.99 572.284 4290.44 572.302 4290.88 572.233C4291.33 572.163 4291.75 572.006 4292.13 571.772C4292.52 571.538 4292.85 571.23 4293.11 570.867L4316.27 539.037C4316.53 538.675 4316.72 538.264 4316.83 537.828C4316.93 537.392 4316.95 536.94 4316.88 536.497C4316.81 536.054 4316.65 535.629 4316.42 535.247C4316.19 534.865 4315.88 534.533 4315.52 534.27C4314.97 533.868 4314.31 533.64 4313.63 533.615ZM4039.18 548.064C4038.73 548.04 4038.28 548.105 4037.86 548.255C4037.44 548.406 4037.05 548.638 4036.72 548.94C4036.38 549.239 4036.11 549.602 4035.92 550.006C4035.72 550.411 4035.61 550.849 4035.59 551.297C4035.56 551.745 4035.63 552.193 4035.78 552.615C4035.93 553.038 4036.16 553.426 4036.46 553.759L4047.54 566.066C4047.84 566.4 4048.2 566.671 4048.61 566.865C4049.01 567.058 4049.45 567.17 4049.9 567.193C4050.35 567.217 4050.79 567.152 4051.22 567.001C4051.64 566.851 4052.03 566.619 4052.36 566.318C4052.69 566.019 4052.97 565.656 4053.16 565.252C4053.35 564.847 4053.46 564.409 4053.49 563.961C4053.51 563.513 4053.45 563.065 4053.3 562.642C4053.15 562.22 4052.91 561.831 4052.61 561.498L4041.54 549.192C4041.24 548.858 4040.87 548.586 4040.47 548.393C4040.07 548.199 4039.63 548.088 4039.18 548.064ZM4330.85 548.089C4329.94 548.137 4329.09 548.543 4328.49 549.217L4317.41 561.521C4317.11 561.854 4316.88 562.242 4316.73 562.665C4316.58 563.087 4316.51 563.536 4316.53 563.984C4316.56 564.432 4316.67 564.87 4316.86 565.275C4317.06 565.68 4317.33 566.042 4317.66 566.342C4317.99 566.642 4318.38 566.875 4318.81 567.025C4319.23 567.175 4319.68 567.24 4320.12 567.217C4320.57 567.193 4321.01 567.081 4321.41 566.888C4321.82 566.694 4322.18 566.423 4322.48 566.089L4333.56 553.785C4333.86 553.452 4334.09 553.063 4334.24 552.641C4334.39 552.218 4334.46 551.77 4334.44 551.322C4334.41 550.874 4334.3 550.435 4334.11 550.031C4333.91 549.626 4333.64 549.264 4333.31 548.964C4332.98 548.663 4332.59 548.431 4332.16 548.281C4331.74 548.131 4331.29 548.065 4330.85 548.089ZM4022.47 564.117C4022.02 564.141 4021.58 564.253 4021.18 564.447C4020.77 564.64 4020.41 564.912 4020.11 565.246C4019.81 565.578 4019.58 565.967 4019.43 566.39C4019.28 566.812 4019.21 567.26 4019.23 567.708C4019.26 568.156 4019.37 568.595 4019.56 568.999C4019.76 569.404 4020.03 569.766 4020.36 570.065L4049.62 596.401C4049.95 596.701 4050.34 596.933 4050.76 597.083C4051.18 597.233 4051.63 597.299 4052.08 597.275C4052.53 597.252 4052.97 597.14 4053.37 596.946C4053.78 596.753 4054.14 596.481 4054.44 596.148C4054.74 595.815 4054.97 595.426 4055.12 595.004C4055.27 594.581 4055.34 594.133 4055.31 593.686C4055.29 593.238 4055.18 592.799 4054.98 592.395C4054.79 591.99 4054.52 591.628 4054.18 591.329L4024.93 564.993C4024.6 564.692 4024.21 564.46 4023.78 564.31C4023.36 564.159 4022.91 564.093 4022.47 564.117ZM4347.64 564.233C4347.19 564.208 4346.74 564.273 4346.32 564.423C4345.9 564.573 4345.51 564.805 4345.17 565.106L4315.9 591.421C4315.57 591.72 4315.3 592.082 4315.1 592.486C4314.91 592.891 4314.8 593.329 4314.77 593.777C4314.75 594.225 4314.81 594.673 4314.96 595.095C4315.11 595.518 4315.34 595.907 4315.64 596.24C4315.94 596.574 4316.31 596.846 4316.71 597.04C4317.12 597.234 4317.55 597.346 4318 597.369C4318.45 597.393 4318.9 597.328 4319.32 597.178C4319.74 597.029 4320.13 596.797 4320.47 596.496L4349.74 570.181C4350.07 569.882 4350.35 569.52 4350.54 569.116C4350.73 568.711 4350.84 568.273 4350.87 567.825C4350.89 567.377 4350.83 566.929 4350.68 566.507C4350.53 566.084 4350.3 565.695 4350 565.362C4349.7 565.028 4349.33 564.756 4348.93 564.562C4348.53 564.369 4348.09 564.257 4347.64 564.233ZM4008.57 581.988C4008.01 581.968 4007.46 582.086 4006.95 582.331C4006.45 582.577 4006.02 582.942 4005.69 583.396C4005.43 583.758 4005.23 584.169 4005.13 584.605C4005.02 585.041 4005.01 585.493 4005.08 585.936C4005.15 586.379 4005.3 586.804 4005.54 587.186C4005.77 587.568 4006.08 587.9 4006.45 588.163L4019.84 597.894C4020.2 598.158 4020.61 598.349 4021.05 598.454C4021.48 598.56 4021.94 598.578 4022.38 598.508C4022.82 598.438 4023.25 598.281 4023.63 598.046C4024.01 597.811 4024.34 597.503 4024.61 597.14C4024.87 596.778 4025.06 596.367 4025.17 595.931C4025.27 595.495 4025.29 595.043 4025.22 594.6C4025.15 594.157 4024.99 593.732 4024.76 593.35C4024.52 592.968 4024.22 592.636 4023.85 592.373L4010.46 582.641C4009.91 582.24 4009.25 582.012 4008.57 581.988ZM4361.52 582.112C4360.84 582.136 4360.19 582.363 4359.64 582.763L4346.23 592.486C4345.87 592.749 4345.56 593.081 4345.33 593.463C4345.09 593.845 4344.93 594.269 4344.86 594.712C4344.79 595.155 4344.81 595.608 4344.92 596.044C4345.02 596.48 4345.21 596.891 4345.48 597.253C4345.74 597.617 4346.07 597.925 4346.45 598.16C4346.83 598.395 4347.26 598.552 4347.7 598.623C4348.14 598.693 4348.6 598.675 4349.03 598.571C4349.47 598.466 4349.88 598.276 4350.24 598.011L4363.64 588.288C4364.01 588.025 4364.31 587.693 4364.55 587.311C4364.78 586.929 4364.94 586.505 4365.01 586.062C4365.08 585.619 4365.06 585.167 4364.96 584.731C4364.85 584.295 4364.66 583.884 4364.4 583.522C4364.07 583.069 4363.64 582.703 4363.14 582.457C4362.64 582.211 4362.08 582.093 4361.52 582.112ZM3995.58 601.049C3995.02 601.087 3994.48 601.262 3994.01 601.559C3993.54 601.856 3993.14 602.265 3992.87 602.75C3992.64 603.138 3992.49 603.567 3992.44 604.011C3992.38 604.456 3992.41 604.907 3992.52 605.34C3992.64 605.774 3992.84 606.18 3993.11 606.535C3993.39 606.891 3993.73 607.189 3994.11 607.412L4028.2 627.093C4028.59 627.319 4029.02 627.465 4029.46 627.524C4029.91 627.583 4030.36 627.554 4030.79 627.438C4031.23 627.322 4031.63 627.121 4031.99 626.848C4032.34 626.575 4032.64 626.234 4032.87 625.845C4033.09 625.457 4033.24 625.029 4033.3 624.584C4033.36 624.14 4033.33 623.688 4033.21 623.255C4033.09 622.821 4032.89 622.416 4032.62 622.06C4032.35 621.705 4032.01 621.407 4031.62 621.183L3997.53 601.502C3996.94 601.16 3996.26 601.002 3995.58 601.049ZM4374.42 601.049C4373.74 601.001 4373.06 601.158 4372.47 601.502L4338.38 621.183C4338 621.407 4337.65 621.705 4337.38 622.06C4337.11 622.416 4336.91 622.821 4336.79 623.255C4336.68 623.688 4336.65 624.14 4336.71 624.584C4336.76 625.029 4336.91 625.457 4337.14 625.845C4337.36 626.234 4337.66 626.575 4338.01 626.848C4338.37 627.121 4338.77 627.322 4339.21 627.438C4339.64 627.554 4340.09 627.583 4340.54 627.524C4340.98 627.465 4341.41 627.319 4341.8 627.093L4375.89 607.413C4376.28 607.189 4376.62 606.891 4376.89 606.536C4377.16 606.18 4377.36 605.774 4377.48 605.341C4377.6 604.908 4377.63 604.456 4377.57 604.012C4377.51 603.567 4377.36 603.139 4377.14 602.751C4376.86 602.266 4376.46 601.857 4375.99 601.561C4375.52 601.264 4374.98 601.088 4374.42 601.049ZM3985.76 621.367C3985.09 621.352 3984.43 621.537 3983.86 621.897C3983.3 622.258 3982.85 622.778 3982.58 623.392C3982.4 623.801 3982.3 624.242 3982.28 624.69C3982.27 625.139 3982.35 625.585 3982.51 626.004C3982.67 626.422 3982.91 626.805 3983.22 627.131C3983.53 627.456 3983.9 627.717 3984.31 627.898L3999.43 634.644C3999.84 634.827 4000.28 634.928 4000.73 634.941C4001.18 634.954 4001.62 634.877 4002.04 634.717C4002.46 634.557 4002.84 634.315 4003.17 634.006C4003.49 633.698 4003.75 633.328 4003.94 632.918C4004.12 632.509 4004.22 632.067 4004.23 631.619C4004.24 631.171 4004.17 630.724 4004.01 630.306C4003.85 629.887 4003.61 629.504 4003.3 629.179C4002.99 628.854 4002.62 628.593 4002.21 628.411L3987.09 621.666C3986.67 621.478 3986.22 621.376 3985.76 621.367ZM4384.3 621.508C4383.85 621.518 4383.4 621.619 4382.98 621.806L4367.85 628.54C4367.44 628.721 4367.07 628.982 4366.76 629.307C4366.45 629.631 4366.21 630.014 4366.05 630.433C4365.89 630.851 4365.81 631.298 4365.83 631.746C4365.84 632.194 4365.94 632.636 4366.12 633.045C4366.3 633.455 4366.56 633.825 4366.89 634.135C4367.21 634.444 4367.6 634.685 4368.02 634.846C4368.43 635.007 4368.88 635.083 4369.33 635.071C4369.78 635.059 4370.22 634.958 4370.63 634.775L4385.75 628.04C4386.16 627.859 4386.53 627.598 4386.84 627.273C4387.15 626.948 4387.39 626.566 4387.55 626.147C4387.72 625.728 4387.79 625.282 4387.78 624.834C4387.77 624.386 4387.67 623.944 4387.48 623.535C4387.21 622.921 4386.77 622.402 4386.2 622.041C4385.63 621.68 4384.97 621.495 4384.3 621.508ZM3977.01 642.604C3976.34 642.66 3975.71 642.912 3975.18 643.33C3974.65 643.747 3974.26 644.31 3974.06 644.948C3973.92 645.374 3973.86 645.824 3973.9 646.271C3973.93 646.718 3974.05 647.154 3974.26 647.553C3974.46 647.953 3974.74 648.309 3975.08 648.6C3975.42 648.891 3975.82 649.112 3976.24 649.25L4013.67 661.445C4014.1 661.585 4014.55 661.639 4014.99 661.605C4015.44 661.571 4015.88 661.449 4016.28 661.245C4016.68 661.042 4017.03 660.762 4017.32 660.421C4017.61 660.08 4017.84 659.684 4017.97 659.258C4018.11 658.832 4018.17 658.382 4018.13 657.935C4018.1 657.488 4017.98 657.052 4017.77 656.652C4017.57 656.253 4017.29 655.897 4016.95 655.606C4016.61 655.315 4016.21 655.094 4015.79 654.956L3978.36 642.76C3977.93 642.618 3977.47 642.565 3977.01 642.604ZM4393.04 642.75C4392.58 642.708 4392.12 642.762 4391.69 642.907L4354.26 655.075C4353.83 655.213 4353.43 655.434 4353.09 655.725C4352.75 656.016 4352.47 656.371 4352.27 656.771C4352.06 657.17 4351.94 657.606 4351.91 658.053C4351.87 658.5 4351.93 658.95 4352.07 659.376C4352.2 659.803 4352.42 660.198 4352.72 660.539C4353.01 660.88 4353.36 661.161 4353.76 661.364C4354.16 661.568 4354.6 661.69 4355.04 661.724C4355.49 661.759 4355.94 661.705 4356.37 661.565L4393.8 649.398C4394.23 649.26 4394.62 649.039 4394.96 648.748C4395.31 648.457 4395.59 648.102 4395.79 647.702C4395.99 647.303 4396.12 646.867 4396.15 646.42C4396.19 645.972 4396.13 645.523 4395.99 645.097C4395.79 644.458 4395.4 643.894 4394.87 643.476C4394.34 643.059 4393.71 642.806 4393.04 642.75ZM3971.56 664.894C3970.77 664.888 3970.01 665.154 3969.4 665.647C3968.78 666.14 3968.36 666.83 3968.2 667.599C3968.1 668.038 3968.1 668.491 3968.18 668.932C3968.26 669.373 3968.43 669.793 3968.67 670.169C3968.92 670.545 3969.23 670.869 3969.6 671.123C3969.97 671.376 3970.39 671.554 3970.83 671.647L3987.02 675.089C3987.46 675.183 3987.92 675.19 3988.36 675.108C3988.8 675.027 3989.22 674.86 3989.59 674.615C3989.97 674.371 3990.29 674.055 3990.55 673.685C3990.8 673.315 3990.98 672.899 3991.07 672.46C3991.17 672.021 3991.17 671.569 3991.09 671.128C3991.01 670.687 3990.84 670.266 3990.6 669.89C3990.35 669.514 3990.04 669.19 3989.67 668.936C3989.3 668.683 3988.88 668.505 3988.44 668.413L3972.25 664.97C3972.02 664.922 3971.79 664.894 3971.56 664.894ZM4398.45 664.926C4398.22 664.932 4397.99 664.956 4397.76 664.999L4381.56 668.44C4381.13 668.532 4380.71 668.71 4380.34 668.964C4379.97 669.217 4379.65 669.541 4379.41 669.917C4379.17 670.293 4379 670.713 4378.92 671.154C4378.84 671.595 4378.84 672.047 4378.94 672.486C4379.03 672.925 4379.21 673.341 4379.46 673.711C4379.71 674.081 4380.04 674.397 4380.41 674.642C4380.79 674.886 4381.21 675.054 4381.65 675.135C4382.09 675.217 4382.54 675.21 4382.98 675.117L4399.18 671.676C4399.62 671.584 4400.03 671.405 4400.4 671.152C4400.77 670.898 4401.09 670.574 4401.33 670.198C4401.58 669.822 4401.75 669.402 4401.83 668.961C4401.91 668.52 4401.9 668.067 4401.81 667.629C4401.65 666.859 4401.22 666.17 4400.61 665.676C4400 665.183 4399.23 664.92 4398.45 664.926ZM3967.43 687.317C3966.65 687.392 3965.92 687.736 3965.36 688.289C3964.8 688.843 3964.45 689.573 3964.37 690.354C3964.32 690.8 3964.36 691.251 3964.49 691.682C3964.62 692.112 3964.83 692.513 3965.11 692.862C3965.39 693.211 3965.74 693.5 3966.13 693.714C3966.53 693.928 3966.96 694.062 3967.41 694.108L4006.55 698.246C4007 698.294 4007.45 698.254 4007.88 698.128C4008.31 698.001 4008.71 697.791 4009.06 697.509C4009.41 697.226 4009.7 696.878 4009.91 696.484C4010.12 696.09 4010.26 695.657 4010.3 695.211C4010.35 694.765 4010.31 694.314 4010.19 693.883C4010.06 693.453 4009.85 693.052 4009.57 692.703C4009.28 692.355 4008.94 692.065 4008.54 691.851C4008.15 691.637 4007.71 691.504 4007.27 691.458L3968.12 687.319C3967.89 687.295 3967.66 687.294 3967.43 687.317ZM4402.6 687.611C4402.37 687.586 4402.14 687.587 4401.91 687.613L4362.76 691.699C4362.32 691.745 4361.88 691.878 4361.49 692.091C4361.09 692.305 4360.75 692.594 4360.46 692.942C4360.18 693.29 4359.97 693.691 4359.84 694.121C4359.71 694.551 4359.67 695.002 4359.72 695.447C4359.77 695.894 4359.9 696.326 4360.11 696.721C4360.33 697.115 4360.62 697.464 4360.96 697.747C4361.31 698.029 4361.71 698.24 4362.14 698.367C4362.57 698.494 4363.02 698.535 4363.47 698.488L4402.62 694.402C4403.07 694.356 4403.5 694.223 4403.89 694.01C4404.29 693.796 4404.64 693.507 4404.92 693.159C4405.2 692.811 4405.41 692.41 4405.54 691.98C4405.67 691.55 4405.71 691.099 4405.66 690.654C4405.58 689.872 4405.23 689.141 4404.68 688.586C4404.12 688.032 4403.39 687.687 4402.6 687.611ZM3966.77 710.268C3966.32 710.267 3965.88 710.355 3965.46 710.526C3965.05 710.697 3964.67 710.949 3964.35 711.266C3964.04 711.583 3963.78 711.96 3963.61 712.374C3963.44 712.789 3963.35 713.233 3963.36 713.682C3963.35 714.13 3963.44 714.574 3963.61 714.989C3963.78 715.403 3964.04 715.78 3964.35 716.097C3964.67 716.414 3965.05 716.665 3965.46 716.836C3965.88 717.007 3966.32 717.094 3966.77 717.093H3983.33C3983.77 717.094 3984.22 717.007 3984.63 716.836C3985.05 716.664 3985.42 716.413 3985.74 716.096C3986.06 715.779 3986.31 715.402 3986.48 714.988C3986.65 714.573 3986.74 714.129 3986.74 713.681C3986.74 713.232 3986.65 712.788 3986.48 712.374C3986.31 711.959 3986.06 711.582 3985.74 711.265C3985.42 710.948 3985.05 710.697 3984.63 710.526C3984.22 710.354 3983.77 710.267 3983.33 710.268L3966.77 710.268ZM4386.67 710.268C4386.22 710.267 4385.78 710.355 4385.37 710.526C4384.95 710.697 4384.57 710.949 4384.26 711.266C4383.94 711.583 4383.69 711.96 4383.52 712.374C4383.35 712.789 4383.26 713.233 4383.26 713.682C4383.26 714.13 4383.35 714.574 4383.52 714.989C4383.69 715.403 4383.94 715.78 4384.26 716.097C4384.58 716.414 4384.95 716.665 4385.37 716.836C4385.78 717.007 4386.23 717.094 4386.67 717.093H4403.23C4403.68 717.094 4404.12 717.007 4404.54 716.835C4404.95 716.664 4405.33 716.413 4405.65 716.096C4405.96 715.779 4406.21 715.402 4406.39 714.988C4406.56 714.573 4406.64 714.129 4406.64 713.681C4406.64 713.232 4406.56 712.788 4406.39 712.373C4406.21 711.959 4405.96 711.582 4405.65 711.265C4405.33 710.948 4404.95 710.696 4404.54 710.525C4404.12 710.354 4403.68 710.267 4403.23 710.268L4386.67 710.268ZM4007.22 728.871C4006.99 728.846 4006.76 728.847 4006.53 728.874L3967.38 732.959C3966.93 733.005 3966.5 733.138 3966.11 733.351C3965.71 733.565 3965.36 733.854 3965.08 734.202C3964.8 734.55 3964.59 734.951 3964.46 735.381C3964.33 735.811 3964.29 736.262 3964.34 736.707C3964.38 737.154 3964.52 737.586 3964.73 737.981C3964.94 738.375 3965.23 738.724 3965.58 739.006C3965.93 739.289 3966.33 739.5 3966.76 739.627C3967.19 739.754 3967.64 739.795 3968.09 739.748L4007.24 735.662C4007.68 735.616 4008.12 735.483 4008.51 735.27C4008.91 735.056 4009.25 734.767 4009.54 734.419C4009.82 734.071 4010.03 733.67 4010.16 733.24C4010.28 732.81 4010.33 732.359 4010.28 731.914C4010.2 731.132 4009.85 730.401 4009.29 729.847C4008.74 729.292 4008 728.947 4007.22 728.871ZM4362.76 729.112C4361.97 729.188 4361.24 729.532 4360.68 730.086C4360.13 730.64 4359.78 731.369 4359.7 732.151C4359.65 732.597 4359.69 733.048 4359.81 733.478C4359.94 733.908 4360.15 734.309 4360.43 734.658C4360.72 735.006 4361.06 735.296 4361.46 735.51C4361.85 735.724 4362.28 735.858 4362.73 735.904L4401.87 740.042C4402.32 740.09 4402.77 740.05 4403.2 739.923C4403.63 739.797 4404.03 739.586 4404.38 739.304C4404.73 739.022 4405.02 738.674 4405.23 738.28C4405.45 737.885 4405.58 737.453 4405.63 737.007C4405.68 736.561 4405.64 736.11 4405.51 735.68C4405.38 735.249 4405.17 734.849 4404.89 734.5C4404.61 734.151 4404.26 733.862 4403.87 733.648C4403.47 733.434 4403.04 733.301 4402.59 733.255L4363.45 729.116C4363.22 729.092 4362.99 729.091 4362.76 729.112ZM3987.71 752.167C3987.48 752.169 3987.25 752.193 3987.02 752.24L3970.82 755.681C3970.38 755.773 3969.97 755.951 3969.6 756.205C3969.23 756.458 3968.91 756.782 3968.67 757.158C3968.42 757.534 3968.25 757.955 3968.17 758.396C3968.09 758.837 3968.1 759.29 3968.19 759.728C3968.29 760.167 3968.46 760.583 3968.72 760.953C3968.97 761.323 3969.29 761.639 3969.67 761.884C3970.05 762.128 3970.47 762.296 3970.91 762.377C3971.35 762.458 3971.8 762.452 3972.24 762.358L3988.44 758.918C3988.88 758.826 3989.29 758.648 3989.66 758.394C3990.03 758.141 3990.35 757.817 3990.59 757.441C3990.84 757.065 3991 756.644 3991.09 756.203C3991.17 755.762 3991.16 755.31 3991.07 754.871C3990.9 754.102 3990.48 753.412 3989.87 752.919C3989.26 752.425 3988.49 752.161 3987.71 752.167ZM4382.29 752.2C4381.5 752.193 4380.74 752.459 4380.13 752.952C4379.51 753.445 4379.09 754.134 4378.93 754.904C4378.83 755.342 4378.83 755.795 4378.91 756.236C4378.99 756.677 4379.16 757.097 4379.4 757.473C4379.65 757.85 4379.96 758.174 4380.33 758.427C4380.7 758.681 4381.12 758.859 4381.56 758.952L4397.75 762.393C4398.19 762.488 4398.64 762.494 4399.09 762.413C4399.53 762.332 4399.95 762.165 4400.32 761.921C4400.7 761.677 4401.02 761.361 4401.28 760.991C4401.53 760.621 4401.71 760.205 4401.8 759.766C4401.9 759.328 4401.9 758.875 4401.82 758.434C4401.74 757.992 4401.57 757.572 4401.33 757.195C4401.08 756.819 4400.77 756.495 4400.4 756.241C4400.03 755.987 4399.61 755.809 4399.17 755.717L4382.98 752.275C4382.75 752.227 4382.52 752.2 4382.29 752.2ZM4014.98 765.641C4014.53 765.6 4014.07 765.653 4013.63 765.798L3976.2 777.967C3975.77 778.104 3975.38 778.325 3975.04 778.616C3974.69 778.907 3974.41 779.262 3974.21 779.662C3974.01 780.061 3973.88 780.497 3973.85 780.944C3973.81 781.391 3973.87 781.841 3974.01 782.267C3974.15 782.694 3974.37 783.089 3974.66 783.43C3974.95 783.771 3975.3 784.052 3975.7 784.255C3976.1 784.459 3976.54 784.582 3976.99 784.616C3977.43 784.651 3977.88 784.597 3978.31 784.457L4015.74 772.288C4016.17 772.151 4016.56 771.93 4016.91 771.639C4017.25 771.348 4017.53 770.993 4017.73 770.593C4017.93 770.194 4018.06 769.758 4018.09 769.311C4018.13 768.864 4018.07 768.414 4017.93 767.988C4017.73 767.349 4017.34 766.786 4016.81 766.368C4016.29 765.95 4015.65 765.698 4014.98 765.641ZM4354.98 765.762C4354.31 765.818 4353.67 766.071 4353.15 766.488C4352.62 766.905 4352.23 767.468 4352.03 768.106C4351.89 768.532 4351.83 768.982 4351.87 769.429C4351.9 769.876 4352.02 770.312 4352.23 770.712C4352.43 771.111 4352.71 771.467 4353.05 771.758C4353.39 772.049 4353.79 772.27 4354.21 772.408L4391.64 784.603C4392.07 784.743 4392.52 784.798 4392.96 784.763C4393.41 784.729 4393.85 784.607 4394.25 784.404C4394.65 784.2 4395 783.92 4395.29 783.579C4395.58 783.238 4395.8 782.843 4395.94 782.416C4396.08 781.99 4396.14 781.54 4396.1 781.093C4396.07 780.646 4395.95 780.21 4395.74 779.811C4395.54 779.411 4395.26 779.055 4394.92 778.764C4394.58 778.473 4394.18 778.252 4393.76 778.114L4356.33 765.919C4355.89 765.777 4355.44 765.723 4354.98 765.762ZM4000.7 792.293C4000.24 792.302 3999.79 792.402 3999.37 792.589L3984.24 799.324C3983.83 799.505 3983.46 799.766 3983.16 800.091C3982.85 800.416 3982.6 800.799 3982.44 801.217C3982.28 801.636 3982.21 802.082 3982.22 802.53C3982.23 802.979 3982.33 803.42 3982.52 803.829C3982.7 804.239 3982.96 804.609 3983.28 804.918C3983.61 805.227 3983.99 805.469 3984.41 805.63C3984.83 805.79 3985.27 805.867 3985.72 805.855C3986.17 805.842 3986.61 805.742 3987.02 805.558L4002.15 798.824C4002.56 798.643 4002.93 798.382 4003.24 798.057C4003.55 797.732 4003.79 797.349 4003.95 796.931C4004.11 796.512 4004.19 796.066 4004.17 795.618C4004.16 795.17 4004.06 794.728 4003.88 794.319C4003.61 793.705 4003.16 793.186 4002.59 792.825C4002.03 792.464 4001.37 792.28 4000.7 792.293ZM4369.25 792.423C4368.58 792.408 4367.92 792.592 4367.35 792.952C4366.78 793.312 4366.34 793.832 4366.06 794.446C4365.88 794.856 4365.78 795.297 4365.77 795.745C4365.75 796.194 4365.83 796.64 4365.99 797.059C4366.15 797.477 4366.39 797.86 4366.7 798.186C4367.01 798.511 4367.38 798.772 4367.79 798.953L4382.91 805.699C4383.32 805.882 4383.76 805.983 4384.21 805.996C4384.66 806.009 4385.11 805.932 4385.52 805.772C4385.94 805.612 4386.33 805.37 4386.65 805.061C4386.98 804.752 4387.24 804.382 4387.42 803.972C4387.6 803.563 4387.7 803.121 4387.72 802.673C4387.73 802.225 4387.65 801.779 4387.49 801.36C4387.33 800.941 4387.09 800.559 4386.78 800.233C4386.47 799.908 4386.1 799.647 4385.69 799.466L4370.57 792.72C4370.16 792.533 4369.7 792.432 4369.25 792.423ZM4030.15 799.818C4029.47 799.769 4028.79 799.926 4028.2 800.27L3994.11 819.951C3993.73 820.175 3993.38 820.473 3993.11 820.828C3992.84 821.184 3992.64 821.59 3992.52 822.023C3992.41 822.456 3992.38 822.908 3992.44 823.352C3992.49 823.797 3992.64 824.225 3992.87 824.613C3993.09 825.002 3993.39 825.343 3993.74 825.616C3994.1 825.889 3994.5 826.089 3994.94 826.205C3995.37 826.321 3995.82 826.351 3996.27 826.292C3996.71 826.233 3997.14 826.087 3997.53 825.862L4031.61 806.182C4032 805.958 4032.34 805.66 4032.62 805.305C4032.89 804.949 4033.09 804.543 4033.21 804.11C4033.32 803.677 4033.35 803.225 4033.29 802.78C4033.23 802.336 4033.09 801.907 4032.86 801.519C4032.59 801.034 4032.19 800.626 4031.72 800.329C4031.24 800.032 4030.71 799.856 4030.15 799.818ZM4339.85 799.818C4339.29 799.855 4338.75 800.031 4338.28 800.327C4337.81 800.624 4337.41 801.033 4337.13 801.519C4336.91 801.906 4336.76 802.335 4336.7 802.78C4336.64 803.224 4336.67 803.676 4336.79 804.11C4336.91 804.543 4337.11 804.949 4337.38 805.305C4337.65 805.66 4337.99 805.958 4338.38 806.182L4372.47 825.862C4372.86 826.087 4373.29 826.233 4373.73 826.292C4374.18 826.351 4374.63 826.322 4375.06 826.206C4375.5 826.09 4375.9 825.889 4376.26 825.616C4376.61 825.343 4376.91 825.002 4377.13 824.613C4377.36 824.225 4377.51 823.797 4377.56 823.352C4377.62 822.908 4377.59 822.456 4377.48 822.023C4377.36 821.59 4377.16 821.184 4376.89 820.828C4376.62 820.473 4376.27 820.175 4375.89 819.951L4341.8 800.27C4341.21 799.928 4340.53 799.771 4339.85 799.818ZM4021.65 828.7C4020.97 828.725 4020.31 828.952 4019.76 829.353L4006.36 839.076C4005.99 839.338 4005.68 839.67 4005.45 840.052C4005.21 840.434 4005.06 840.859 4004.99 841.302C4004.92 841.744 4004.93 842.197 4005.04 842.633C4005.14 843.069 4005.33 843.48 4005.6 843.842C4005.86 844.206 4006.19 844.514 4006.57 844.749C4006.96 844.983 4007.38 845.141 4007.82 845.211C4008.27 845.282 4008.72 845.264 4009.15 845.159C4009.59 845.054 4010 844.864 4010.36 844.6L4023.77 834.876C4024.13 834.614 4024.44 834.282 4024.67 833.9C4024.91 833.518 4025.06 833.094 4025.14 832.651C4025.21 832.208 4025.19 831.756 4025.08 831.32C4024.98 830.884 4024.79 830.473 4024.52 830.111C4024.2 829.657 4023.76 829.291 4023.26 829.045C4022.76 828.799 4022.2 828.681 4021.65 828.7ZM4348.27 828.815C4347.71 828.795 4347.16 828.913 4346.66 829.158C4346.15 829.404 4345.72 829.769 4345.39 830.223C4345.13 830.585 4344.94 830.996 4344.83 831.432C4344.73 831.868 4344.71 832.32 4344.78 832.763C4344.85 833.206 4345.01 833.631 4345.24 834.013C4345.48 834.395 4345.78 834.727 4346.15 834.99L4359.54 844.723C4359.91 844.987 4360.32 845.177 4360.75 845.282C4361.19 845.388 4361.64 845.406 4362.08 845.335C4362.53 845.265 4362.95 845.108 4363.33 844.873C4363.71 844.638 4364.05 844.331 4364.31 843.967C4364.57 843.605 4364.76 843.194 4364.87 842.758C4364.97 842.323 4364.99 841.87 4364.92 841.428C4364.85 840.985 4364.7 840.56 4364.46 840.178C4364.23 839.796 4363.92 839.464 4363.56 839.202L4350.16 829.469C4349.61 829.067 4348.95 828.84 4348.27 828.815ZM4052 829.993C4051.55 829.969 4051.1 830.033 4050.68 830.183C4050.26 830.333 4049.87 830.565 4049.53 830.866L4020.26 857.181C4019.93 857.48 4019.66 857.842 4019.46 858.247C4019.27 858.651 4019.16 859.09 4019.13 859.538C4019.11 859.985 4019.17 860.433 4019.32 860.856C4019.47 861.279 4019.7 861.667 4020 862C4020.3 862.334 4020.67 862.606 4021.07 862.8C4021.47 862.994 4021.91 863.106 4022.36 863.129C4022.81 863.153 4023.26 863.088 4023.68 862.939C4024.1 862.789 4024.49 862.557 4024.82 862.256L4054.1 835.942C4054.43 835.643 4054.7 835.28 4054.9 834.876C4055.09 834.472 4055.2 834.033 4055.23 833.585C4055.25 833.138 4055.19 832.689 4055.04 832.267C4054.89 831.844 4054.65 831.455 4054.35 831.123C4054.05 830.788 4053.69 830.517 4053.29 830.323C4052.88 830.129 4052.45 830.017 4052 829.993ZM4317.92 830.087C4317.01 830.136 4316.17 830.541 4315.56 831.215C4315.26 831.548 4315.03 831.936 4314.88 832.359C4314.73 832.782 4314.66 833.23 4314.69 833.677C4314.71 834.125 4314.82 834.564 4315.02 834.969C4315.21 835.373 4315.48 835.736 4315.81 836.035L4345.07 862.37C4345.4 862.671 4345.79 862.903 4346.21 863.053C4346.64 863.203 4347.08 863.268 4347.53 863.244C4347.98 863.221 4348.42 863.109 4348.82 862.916C4349.23 862.722 4349.59 862.451 4349.89 862.117C4350.19 861.784 4350.42 861.396 4350.57 860.973C4350.72 860.551 4350.79 860.103 4350.76 859.655C4350.74 859.207 4350.63 858.768 4350.44 858.364C4350.24 857.96 4349.97 857.597 4349.64 857.298L4320.38 830.962C4320.05 830.661 4319.66 830.429 4319.24 830.279C4318.82 830.129 4318.37 830.064 4317.92 830.087ZM4079.77 855.086C4079.21 855.066 4078.66 855.183 4078.15 855.428C4077.65 855.673 4077.22 856.038 4076.89 856.491L4053.73 888.322C4053.47 888.684 4053.28 889.094 4053.17 889.53C4053.07 889.966 4053.05 890.418 4053.12 890.861C4053.19 891.304 4053.35 891.729 4053.58 892.111C4053.81 892.493 4054.12 892.826 4054.48 893.089C4054.85 893.353 4055.26 893.544 4055.69 893.65C4056.13 893.755 4056.58 893.773 4057.02 893.704C4057.47 893.634 4057.89 893.477 4058.27 893.243C4058.66 893.009 4058.99 892.701 4059.25 892.338L4082.41 860.507C4082.67 860.145 4082.86 859.734 4082.97 859.298C4083.07 858.863 4083.09 858.41 4083.02 857.967C4082.95 857.524 4082.8 857.1 4082.56 856.717C4082.33 856.335 4082.02 856.003 4081.66 855.74C4081.11 855.338 4080.45 855.11 4079.77 855.086ZM4290.04 855.229C4289.36 855.253 4288.7 855.48 4288.15 855.88C4287.79 856.143 4287.48 856.474 4287.25 856.856C4287.01 857.238 4286.85 857.663 4286.78 858.105C4286.71 858.548 4286.73 859 4286.84 859.436C4286.94 859.872 4287.13 860.283 4287.39 860.646L4310.51 892.507C4310.77 892.871 4311.1 893.179 4311.48 893.414C4311.86 893.649 4312.29 893.807 4312.73 893.877C4313.17 893.948 4313.63 893.93 4314.06 893.825C4314.5 893.72 4314.91 893.53 4315.27 893.266C4315.64 893.004 4315.94 892.672 4316.18 892.29C4316.41 891.908 4316.57 891.484 4316.64 891.041C4316.71 890.598 4316.7 890.146 4316.59 889.709C4316.49 889.273 4316.3 888.862 4316.03 888.5L4292.92 856.638C4292.59 856.185 4292.16 855.819 4291.66 855.574C4291.15 855.328 4290.6 855.21 4290.04 855.229ZM4049.88 860.145C4048.97 860.194 4048.13 860.599 4047.52 861.273L4036.44 873.579C4036.14 873.912 4035.91 874.301 4035.76 874.723C4035.61 875.146 4035.54 875.594 4035.57 876.041C4035.59 876.489 4035.7 876.928 4035.89 877.333C4036.09 877.737 4036.36 878.1 4036.69 878.399C4037.03 878.7 4037.41 878.932 4037.84 879.082C4038.26 879.232 4038.71 879.297 4039.16 879.274C4039.6 879.25 4040.04 879.138 4040.45 878.945C4040.85 878.751 4041.21 878.479 4041.51 878.145L4052.59 865.842C4052.89 865.509 4053.13 865.12 4053.28 864.697C4053.43 864.275 4053.49 863.827 4053.47 863.379C4053.44 862.931 4053.33 862.492 4053.14 862.087C4052.94 861.683 4052.67 861.32 4052.34 861.021C4052.01 860.72 4051.62 860.488 4051.2 860.338C4050.77 860.188 4050.33 860.122 4049.88 860.145ZM4320.1 860.162C4319.65 860.137 4319.21 860.202 4318.78 860.352C4318.36 860.502 4317.97 860.735 4317.64 861.036C4317.31 861.336 4317.04 861.698 4316.84 862.102C4316.65 862.507 4316.54 862.945 4316.51 863.393C4316.49 863.841 4316.56 864.289 4316.71 864.711C4316.86 865.134 4317.09 865.523 4317.39 865.855L4328.47 878.162C4328.76 878.496 4329.13 878.768 4329.53 878.961C4329.94 879.155 4330.37 879.267 4330.82 879.29C4331.27 879.314 4331.72 879.248 4332.14 879.098C4332.56 878.948 4332.95 878.716 4333.28 878.415C4333.62 878.116 4333.89 877.753 4334.08 877.349C4334.28 876.944 4334.39 876.505 4334.41 876.057C4334.44 875.61 4334.37 875.161 4334.22 874.739C4334.07 874.316 4333.84 873.927 4333.54 873.595L4322.46 861.289C4322.16 860.955 4321.8 860.683 4321.39 860.489C4320.99 860.296 4320.55 860.185 4320.1 860.162ZM4112.11 873.811C4111.44 873.796 4110.78 873.981 4110.21 874.341C4109.64 874.701 4109.2 875.221 4108.92 875.835L4092.89 911.783C4092.7 912.192 4092.6 912.633 4092.59 913.081C4092.58 913.53 4092.65 913.976 4092.81 914.394C4092.97 914.813 4093.22 915.196 4093.53 915.521C4093.83 915.846 4094.2 916.107 4094.61 916.289C4095.02 916.472 4095.46 916.573 4095.91 916.586C4096.36 916.599 4096.81 916.522 4097.23 916.362C4097.64 916.202 4098.03 915.96 4098.35 915.651C4098.68 915.343 4098.94 914.973 4099.12 914.563L4115.16 878.616C4115.34 878.206 4115.44 877.765 4115.45 877.317C4115.47 876.868 4115.39 876.422 4115.23 876.003C4115.07 875.584 4114.83 875.202 4114.52 874.876C4114.21 874.551 4113.84 874.29 4113.43 874.109C4113.01 873.922 4112.56 873.82 4112.11 873.811ZM4257.68 873.91C4257.22 873.919 4256.77 874.019 4256.35 874.206C4255.94 874.387 4255.57 874.648 4255.26 874.972C4254.95 875.297 4254.71 875.68 4254.55 876.098C4254.39 876.517 4254.31 876.963 4254.33 877.411C4254.34 877.859 4254.44 878.301 4254.62 878.71L4270.61 914.68C4270.79 915.09 4271.05 915.46 4271.38 915.769C4271.7 916.078 4272.08 916.32 4272.5 916.481C4272.92 916.642 4273.37 916.718 4273.81 916.706C4274.26 916.695 4274.7 916.594 4275.11 916.411C4275.52 916.23 4275.89 915.969 4276.2 915.645C4276.51 915.32 4276.75 914.938 4276.91 914.519C4277.08 914.101 4277.15 913.655 4277.14 913.206C4277.13 912.758 4277.03 912.317 4276.85 911.908L4260.86 875.938C4260.59 875.325 4260.14 874.805 4259.57 874.444C4259.01 874.083 4258.35 873.897 4257.68 873.91ZM4083.92 884.925C4083.37 884.963 4082.83 885.139 4082.35 885.435C4081.88 885.732 4081.49 886.141 4081.21 886.626L4072.93 900.966C4072.71 901.354 4072.56 901.782 4072.5 902.227C4072.44 902.671 4072.47 903.123 4072.59 903.556C4072.7 903.989 4072.9 904.395 4073.18 904.751C4073.45 905.106 4073.79 905.404 4074.18 905.628C4074.57 905.853 4075 905.999 4075.44 906.058C4075.88 906.117 4076.34 906.088 4076.77 905.972C4077.2 905.856 4077.61 905.655 4077.96 905.382C4078.32 905.109 4078.62 904.768 4078.84 904.379L4087.12 890.039C4087.35 889.651 4087.49 889.222 4087.55 888.778C4087.61 888.333 4087.58 887.882 4087.46 887.448C4087.35 887.015 4087.15 886.609 4086.87 886.254C4086.6 885.898 4086.26 885.6 4085.87 885.377C4085.28 885.036 4084.6 884.878 4083.92 884.925ZM4286.08 884.925C4285.4 884.877 4284.72 885.035 4284.13 885.378C4283.74 885.601 4283.4 885.899 4283.13 886.255C4282.86 886.61 4282.65 887.016 4282.54 887.449C4282.42 887.882 4282.39 888.334 4282.45 888.779C4282.51 889.223 4282.66 889.652 4282.88 890.04L4291.16 904.379C4291.38 904.768 4291.68 905.109 4292.04 905.382C4292.39 905.655 4292.8 905.856 4293.23 905.972C4293.67 906.088 4294.12 906.117 4294.56 906.058C4295.01 905.999 4295.44 905.853 4295.82 905.628C4296.21 905.404 4296.55 905.106 4296.83 904.751C4297.1 904.395 4297.3 903.989 4297.42 903.556C4297.53 903.123 4297.56 902.671 4297.5 902.227C4297.44 901.782 4297.3 901.354 4297.07 900.966L4288.79 886.627C4288.51 886.142 4288.12 885.733 4287.65 885.436C4287.17 885.14 4286.63 884.964 4286.08 884.925ZM4147.81 885.439C4147.02 885.433 4146.26 885.698 4145.65 886.191C4145.03 886.684 4144.61 887.374 4144.45 888.143L4136.27 926.648C4136.18 927.086 4136.17 927.539 4136.25 927.98C4136.33 928.421 4136.5 928.841 4136.74 929.217C4136.99 929.593 4137.3 929.918 4137.67 930.171C4138.04 930.425 4138.46 930.603 4138.9 930.695C4139.34 930.789 4139.79 930.796 4140.23 930.714C4140.67 930.633 4141.09 930.466 4141.47 930.221C4141.85 929.977 4142.17 929.661 4142.42 929.291C4142.68 928.921 4142.86 928.505 4142.95 928.066L4151.13 889.562C4151.23 889.066 4151.23 888.553 4151.11 888.06C4150.99 887.567 4150.77 887.106 4150.45 886.711C4150.13 886.316 4149.73 885.997 4149.27 885.778C4148.82 885.558 4148.32 885.441 4147.81 885.439ZM4222.07 885.464C4221.57 885.465 4221.07 885.58 4220.61 885.799C4220.15 886.018 4219.75 886.337 4219.43 886.731C4219.11 887.126 4218.89 887.586 4218.77 888.079C4218.65 888.572 4218.65 889.085 4218.75 889.581L4226.9 928.091C4227 928.53 4227.17 928.946 4227.43 929.316C4227.68 929.686 4228 930.003 4228.38 930.248C4228.76 930.492 4229.18 930.66 4229.62 930.742C4230.06 930.823 4230.51 930.817 4230.95 930.723C4231.39 930.631 4231.81 930.454 4232.18 930.2C4232.55 929.947 4232.86 929.623 4233.11 929.247C4233.35 928.871 4233.52 928.451 4233.6 928.01C4233.68 927.569 4233.68 927.116 4233.58 926.678L4225.43 888.17C4225.27 887.401 4224.85 886.711 4224.23 886.217C4223.62 885.723 4222.86 885.458 4222.07 885.464ZM4185 889.347C4184.55 889.346 4184.11 889.434 4183.69 889.605C4183.28 889.776 4182.9 890.028 4182.58 890.345C4182.27 890.662 4182.02 891.039 4181.85 891.453C4181.67 891.868 4181.59 892.312 4181.59 892.76V932.123C4181.59 932.571 4181.67 933.015 4181.85 933.43C4182.02 933.845 4182.27 934.221 4182.59 934.538C4182.9 934.856 4183.28 935.107 4183.69 935.278C4184.11 935.449 4184.55 935.537 4185 935.536C4185.45 935.537 4185.89 935.449 4186.31 935.278C4186.72 935.106 4187.1 934.855 4187.42 934.538C4187.73 934.221 4187.98 933.844 4188.16 933.43C4188.33 933.015 4188.41 932.571 4188.41 932.123V892.761C4188.41 892.313 4188.33 891.869 4188.16 891.454C4187.98 891.039 4187.73 890.663 4187.42 890.346C4187.1 890.028 4186.72 889.777 4186.31 889.606C4185.89 889.435 4185.45 889.346 4185 889.347ZM4122.36 902.068C4121.69 902.124 4121.05 902.378 4120.53 902.795C4120 903.213 4119.61 903.776 4119.41 904.415L4114.29 920.162C4114.15 920.588 4114.09 921.038 4114.13 921.485C4114.16 921.932 4114.29 922.368 4114.49 922.767C4114.69 923.167 4114.97 923.523 4115.31 923.813C4115.66 924.104 4116.05 924.325 4116.48 924.463C4116.9 924.602 4117.35 924.656 4117.8 924.621C4118.25 924.586 4118.68 924.464 4119.08 924.26C4119.48 924.056 4119.84 923.776 4120.13 923.435C4120.42 923.093 4120.64 922.698 4120.78 922.271L4125.9 906.525C4126.04 906.099 4126.09 905.65 4126.05 905.203C4126.02 904.756 4125.9 904.32 4125.69 903.92C4125.49 903.521 4125.21 903.165 4124.87 902.874C4124.53 902.583 4124.13 902.363 4123.71 902.225C4123.27 902.083 4122.81 902.03 4122.36 902.068ZM4247.62 902.076C4247.16 902.034 4246.7 902.087 4246.27 902.231C4245.84 902.369 4245.45 902.59 4245.1 902.881C4244.76 903.172 4244.48 903.527 4244.28 903.927C4244.08 904.326 4243.95 904.762 4243.92 905.209C4243.88 905.657 4243.94 906.106 4244.08 906.532L4249.19 922.279C4249.33 922.706 4249.55 923.102 4249.84 923.443C4250.13 923.784 4250.49 924.065 4250.89 924.268C4251.29 924.472 4251.72 924.594 4252.17 924.629C4252.62 924.664 4253.07 924.61 4253.49 924.47C4253.92 924.332 4254.32 924.112 4254.66 923.821C4255 923.53 4255.28 923.175 4255.48 922.776C4255.69 922.376 4255.81 921.94 4255.84 921.493C4255.88 921.046 4255.83 920.597 4255.69 920.171L4250.57 904.423C4250.36 903.784 4249.97 903.221 4249.45 902.804C4248.92 902.386 4248.28 902.133 4247.62 902.076ZM4163.58 910.846C4162.8 910.921 4162.07 911.265 4161.51 911.82C4160.95 912.374 4160.6 913.104 4160.52 913.886L4158.79 930.353C4158.74 930.799 4158.78 931.25 4158.91 931.68C4159.04 932.11 4159.25 932.511 4159.53 932.859C4159.81 933.208 4160.16 933.497 4160.55 933.71C4160.95 933.924 4161.38 934.057 4161.83 934.103C4162.27 934.151 4162.72 934.11 4163.15 933.984C4163.58 933.857 4163.99 933.646 4164.33 933.364C4164.68 933.082 4164.97 932.734 4165.19 932.339C4165.4 931.945 4165.53 931.512 4165.58 931.066L4167.31 914.6C4167.36 914.154 4167.32 913.703 4167.19 913.273C4167.06 912.843 4166.85 912.442 4166.57 912.093C4166.29 911.745 4165.94 911.455 4165.55 911.242C4165.15 911.028 4164.72 910.895 4164.27 910.849C4164.04 910.825 4163.81 910.824 4163.58 910.846ZM4206.28 910.862C4206.05 910.837 4205.82 910.838 4205.59 910.865C4205.14 910.911 4204.71 911.044 4204.32 911.257C4203.92 911.47 4203.57 911.759 4203.29 912.107C4203.01 912.456 4202.8 912.856 4202.67 913.286C4202.54 913.716 4202.5 914.167 4202.55 914.613L4204.27 931.082C4204.32 931.528 4204.45 931.961 4204.66 932.355C4204.88 932.75 4205.16 933.098 4205.51 933.381C4205.86 933.663 4206.26 933.874 4206.69 934.001C4207.12 934.128 4207.57 934.169 4208.02 934.121C4208.46 934.075 4208.9 933.942 4209.29 933.729C4209.69 933.516 4210.04 933.227 4210.32 932.878C4210.6 932.53 4210.81 932.129 4210.94 931.699C4211.07 931.269 4211.11 930.818 4211.06 930.372L4209.34 913.904C4209.26 913.122 4208.91 912.392 4208.36 911.838C4207.8 911.283 4207.07 910.938 4206.28 910.862Z" fill="#F4F2F3"/>
<g opacity="0.409" filter="url(#filter1_f_2094_137)">
<path d="M4344.94 577.173L4158.23 685.65L4040.18 871.493L4212.88 743.579L4344.94 577.173Z" fill="black"/>
</g>
<path d="M4211.76 741.697L4158.24 685.653L4348.08 557.946L4211.76 741.697Z" fill="#FF5150"/>
<path d="M4211.76 741.697L4158.24 685.653L4021.92 869.405L4211.76 741.697Z" fill="#F1F1F1"/>
<path opacity="0.243" d="M4021.92 869.404L4211.76 741.697L4348.08 557.946L4021.92 869.404Z" fill="black"/>
<defs>
<filter id="filter0_f_2094_137" x="3921.16" y="479.687" width="527.714" height="509.58" filterUnits="userSpaceOnUse" color-interpolation-filters="sRGB">
<feFlood flood-opacity="0" result="BackgroundImageFix"/>
<feBlend mode="normal" in="SourceGraphic" in2="BackgroundImageFix" result="shape"/>
<feGaussianBlur stdDeviation="9.60296" result="effect1_foregroundBlur_2094_137"/>
</filter>
<filter id="filter1_f_2094_137" x="4034.73" y="571.714" width="315.673" height="305.238" filterUnits="userSpaceOnUse" color-interpolation-filters="sRGB">
<feFlood flood-opacity="0" result="BackgroundImageFix"/>
<feBlend mode="normal" in="SourceGraphic" in2="BackgroundImageFix" result="shape"/>
<feGaussianBlur stdDeviation="2.72951" result="effect1_foregroundBlur_2094_137"/>
</filter>
<linearGradient id="paint0_linear_2094_137" x1="138.46" y1="725.944" x2="379.831" y2="725.944" gradientUnits="userSpaceOnUse">
<stop stop-color="#FF5500"/>
<stop offset="0.4099" stop-color="#FF5500"/>
<stop offset="0.582" stop-color="#FF2000"/>
<stop offset="1" stop-color="#FF2000"/>
</linearGradient>
<linearGradient id="paint1_linear_2094_137" x1="163.268" y1="609.794" x2="359.318" y2="609.794" gradientUnits="userSpaceOnUse">
<stop stop-color="#FF452A"/>
<stop offset="1" stop-color="#FF2000"/>
</linearGradient>
<linearGradient id="paint2_linear_2094_137" x1="3195.26" y1="541.96" x2="2766.16" y2="955.964" gradientUnits="userSpaceOnUse">
<stop offset="0.048" stop-color="#FFF44F"/>
<stop offset="0.111" stop-color="#FFE847"/>
<stop offset="0.225" stop-color="#FFC830"/>
<stop offset="0.368" stop-color="#FF980E"/>
<stop offset="0.401" stop-color="#FF8B16"/>
<stop offset="0.462" stop-color="#FF672A"/>
<stop offset="0.534" stop-color="#FF3647"/>
<stop offset="0.705" stop-color="#E31587"/>
</linearGradient>
<radialGradient id="paint3_radial_2094_137" cx="0" cy="0" r="1" gradientUnits="userSpaceOnUse" gradientTransform="translate(3175.43 518.523) scale(538.869 538.869)">
<stop offset="0.129" stop-color="#FFBD4F"/>
<stop offset="0.186" stop-color="#FFAC31"/>
<stop offset="0.247" stop-color="#FF9D17"/>
<stop offset="0.283" stop-color="#FF980E"/>
<stop offset="0.403" stop-color="#FF563B"/>
<stop offset="0.467" stop-color="#FF3750"/>
<stop offset="0.71" stop-color="#F5156C"/>
<stop offset="0.782" stop-color="#EB0878"/>
<stop offset="0.86" stop-color="#E50080"/>
</radialGradient>
<radialGradient id="paint4_radial_2094_137" cx="0" cy="0" r="1" gradientUnits="userSpaceOnUse" gradientTransform="translate(2978.53 738.829) scale(538.869 538.869)">
<stop offset="0.3" stop-color="#960E18"/>
<stop offset="0.351" stop-color="#B11927" stop-opacity="0.74"/>
<stop offset="0.435" stop-color="#DB293D" stop-opacity="0.343"/>
<stop offset="0.497" stop-color="#F5334B" stop-opacity="0.094"/>
<stop offset="0.53" stop-color="#FF3750" stop-opacity="0"/>
</radialGradient>
<radialGradient id="paint5_radial_2094_137" cx="0" cy="0" r="1" gradientUnits="userSpaceOnUse" gradientTransform="translate(3043.49 396.233) scale(390.388 390.388)">
<stop offset="0.132" stop-color="#FFF44F"/>
<stop offset="0.252" stop-color="#FFDC3E"/>
<stop offset="0.506" stop-color="#FF9D12"/>
<stop offset="0.526" stop-color="#FF980E"/>
</radialGradient>
<radialGradient id="paint6_radial_2094_137" cx="0" cy="0" r="1" gradientUnits="userSpaceOnUse" gradientTransform="translate(2918.92 879.583) scale(256.579 256.579)">
<stop offset="0.353" stop-color="#3A8EE6"/>
<stop offset="0.472" stop-color="#5C79F0"/>
<stop offset="0.669" stop-color="#9059FF"/>
<stop offset="1" stop-color="#C139E6"/>
</radialGradient>
<radialGradient id="paint7_radial_2094_137" cx="0" cy="0" r="1" gradientUnits="userSpaceOnUse" gradientTransform="translate(3007.97 694.666) rotate(-13.5916) scale(136.037 159.265)">
<stop offset="0.206" stop-color="#9059FF" stop-opacity="0"/>
<stop offset="0.278" stop-color="#8C4FF3" stop-opacity="0.064"/>
<stop offset="0.747" stop-color="#7716A8" stop-opacity="0.45"/>
<stop offset="0.975" stop-color="#6E008B" stop-opacity="0.6"/>
</radialGradient>
<radialGradient id="paint8_radial_2094_137" cx="0" cy="0" r="1" gradientUnits="userSpaceOnUse" gradientTransform="translate(2971.72 496.476) scale(184.583 184.583)">
<stop stop-color="#FFE226"/>
<stop offset="0.121" stop-color="#FFDB27"/>
<stop offset="0.295" stop-color="#FFC82A"/>
<stop offset="0.502" stop-color="#FFA930"/>
<stop offset="0.732" stop-color="#FF7E37"/>
<stop offset="0.792" stop-color="#FF7139"/>
</radialGradient>
<radialGradient id="paint9_radial_2094_137" cx="0" cy="0" r="1" gradientUnits="userSpaceOnUse" gradientTransform="translate(3116.81 379.397) scale(787.531 787.532)">
<stop offset="0.113" stop-color="#FFF44F"/>
<stop offset="0.456" stop-color="#FF980E"/>
<stop offset="0.622" stop-color="#FF5634"/>
<stop offset="0.716" stop-color="#FF3647"/>
<stop offset="0.904" stop-color="#E31587"/>
</radialGradient>
<radialGradient id="paint10_radial_2094_137" cx="0" cy="0" r="1" gradientUnits="userSpaceOnUse" gradientTransform="translate(3050.43 423.188) rotate(83.976) scale(577.201 378.812)">
<stop stop-color="#FFF44F"/>
<stop offset="0.06" stop-color="#FFE847"/>
<stop offset="0.168" stop-color="#FFC830"/>
<stop offset="0.304" stop-color="#FF980E"/>
<stop offset="0.356" stop-color="#FF8B16"/>
<stop offset="0.455" stop-color="#FF672A"/>
<stop offset="0.57" stop-color="#FF3647"/>
<stop offset="0.737" stop-color="#E31587"/>
</radialGradient>
<radialGradient id="paint11_radial_2094_137" cx="0" cy="0" r="1" gradientUnits="userSpaceOnUse" gradientTransform="translate(2967.38 564.844) scale(491.669 491.669)">
<stop offset="0.137" stop-color="#FFF44F"/>
<stop offset="0.48" stop-color="#FF980E"/>
<stop offset="0.592" stop-color="#FF5634"/>
<stop offset="0.655" stop-color="#FF3647"/>
<stop offset="0.904" stop-color="#E31587"/>
</radialGradient>
<radialGradient id="paint12_radial_2094_137" cx="0" cy="0" r="1" gradientUnits="userSpaceOnUse" gradientTransform="translate(3097.16 593.619) scale(538.129 538.129)">
<stop offset="0.094" stop-color="#FFF44F"/>
<stop offset="0.231" stop-color="#FFE141"/>
<stop offset="0.509" stop-color="#FFAF1E"/>
<stop offset="0.626" stop-color="#FF980E"/>
</radialGradient>
<linearGradient id="paint13_linear_2094_137" x1="3190.11" y1="539.746" x2="2824.98" y2="904.863" gradientUnits="userSpaceOnUse">
<stop offset="0.167" stop-color="#FFF44F" stop-opacity="0.8"/>
<stop offset="0.266" stop-color="#FFF44F" stop-opacity="0.634"/>
<stop offset="0.489" stop-color="#FFF44F" stop-opacity="0.217"/>
<stop offset="0.6" stop-color="#FFF44F" stop-opacity="0"/>
</linearGradient>
<linearGradient id="paint14_linear_2094_137" x1="6372.99" y1="662.427" x2="6532.08" y2="569.497" gradientUnits="userSpaceOnUse">
<stop stop-color="#A52714" stop-opacity="0.6"/>
<stop offset="0.66" stop-color="#A52714" stop-opacity="0"/>
</linearGradient>
<linearGradient id="paint15_linear_2094_137" x1="6620.06" y1="933.576" x2="6443.3" y2="830.03" gradientUnits="userSpaceOnUse">
<stop stop-color="#055524" stop-opacity="0.4"/>
<stop offset="0.33" stop-color="#055524" stop-opacity="0"/>
</linearGradient>
<linearGradient id="paint16_linear_2094_137" x1="6653.36" y1="586.012" x2="6697.88" y2="780.939" gradientUnits="userSpaceOnUse">
<stop stop-color="#EA6100" stop-opacity="0.3"/>
<stop offset="0.66" stop-color="#EA6100" stop-opacity="0"/>
</linearGradient>
<linearGradient id="paint17_linear_2094_137" x1="6653.36" y1="586.012" x2="6697.88" y2="780.939" gradientUnits="userSpaceOnUse">
<stop stop-color="#EA6100" stop-opacity="0.3"/>
<stop offset="0.66" stop-color="#EA6100" stop-opacity="0"/>
</linearGradient>
<linearGradient id="paint18_linear_2094_137" x1="6372.99" y1="662.427" x2="6532.08" y2="569.497" gradientUnits="userSpaceOnUse">
<stop stop-color="#A52714" stop-opacity="0.6"/>
<stop offset="0.66" stop-color="#A52714" stop-opacity="0"/>
</linearGradient>
<radialGradient id="paint19_radial_2094_137" cx="0" cy="0" r="1" gradientUnits="userSpaceOnUse" gradientTransform="translate(6563.42 604.63) scale(254.782 254.782)">
<stop stop-color="#3E2723" stop-opacity="0.2"/>
<stop offset="1" stop-color="#3E2723" stop-opacity="0"/>
</radialGradient>
<linearGradient id="paint20_linear_2094_137" x1="6620.06" y1="933.576" x2="6443.3" y2="830.03" gradientUnits="userSpaceOnUse">
<stop stop-color="#055524" stop-opacity="0.4"/>
<stop offset="0.33" stop-color="#055524" stop-opacity="0"/>
</linearGradient>
<radialGradient id="paint21_radial_2094_137" cx="0" cy="0" r="1" gradientUnits="userSpaceOnUse" gradientTransform="translate(6350.39 582.121) scale(236.497 236.497)">
<stop stop-color="#3E2723" stop-opacity="0.2"/>
<stop offset="1" stop-color="#3E2723" stop-opacity="0"/>
</radialGradient>
<radialGradient id="paint22_radial_2094_137" cx="0" cy="0" r="1" gradientUnits="userSpaceOnUse" gradientTransform="translate(6574.51 726.418) scale(266.273 266.273)">
<stop stop-color="#263238" stop-opacity="0.2"/>
<stop offset="1" stop-color="#263238" stop-opacity="0"/>
</radialGradient>
<radialGradient id="paint23_radial_2094_137" cx="0" cy="0" r="1" gradientUnits="userSpaceOnUse" gradientTransform="translate(6387.99 532.103) scale(535.606)">
<stop stop-color="white" stop-opacity="0.1"/>
<stop offset="1" stop-color="white" stop-opacity="0"/>
</radialGradient>
<linearGradient id="paint24_linear_2094_137" x1="4184.99" y1="967.635" x2="4184.99" y2="459.709" gradientUnits="userSpaceOnUse">
<stop stop-color="#BDBDBD"/>
<stop offset="1" stop-color="white"/>
</linearGradient>
<radialGradient id="paint25_radial_2094_137" cx="0" cy="0" r="1" gradientUnits="userSpaceOnUse" gradientTransform="translate(4186.06 679.545) scale(253.964 253.964)">
<stop stop-color="#06C2E7"/>
<stop offset="0.25" stop-color="#0DB8EC"/>
<stop offset="0.5" stop-color="#12AEF1"/>
<stop offset="0.75" stop-color="#1F86F9"/>
<stop offset="1" stop-color="#107DDD"/>
</radialGradient>
</defs>
</svg>
